<svg width="110" height="52" viewBox="0 0 110 52" fill="none" xmlns="http://www.w3.org/2000/svg">
<path d="M59.5728 16.4861C60.2449 15.8103 60.6439 14.8806 60.6439 13.8842V10.9071C60.6439 8.99231 59.4183 7.29654 57.611 6.71083L51.3548 4.68056C51.1691 4.62028 50.9656 4.66454 50.8209 4.79667L49.2623 6.22059C48.9506 6.5053 49.0614 7.02357 49.4617 7.15343L56.7199 9.50834C57.3223 9.70357 57.7309 10.2688 57.7309 10.9071V13.1822C57.7309 14.0386 56.9217 14.6585 56.1037 14.4293L52.1675 13.3264C51.4882 13.1361 50.8161 13.6514 50.8161 14.3626C50.8161 15.3287 51.4547 16.1763 52.3776 16.4349L53.8864 16.8583C56.1585 17.4949 57.7309 19.5817 57.7309 21.9604V22.5292C57.7309 23.5008 56.8127 24.2049 55.8846 23.9448L48.0688 21.7549C47.7536 21.6665 47.5355 21.377 47.5355 21.0471V6.70766C47.5355 6.08992 47.7925 5.50055 48.2439 5.08313L50.1457 3.32462C50.5419 2.95835 51.1057 2.84184 51.6127 3.02152L59.5435 5.83228C61.1245 6.3926 62.233 7.80742 62.4323 9.45509L64.8402 7.2205C64.0693 5.31194 62.5181 3.77206 60.5091 3.06005L52.5783 0.249292C51.0574 -0.289756 49.3657 0.0597596 48.1774 1.1586L46.2756 2.9171C45.2222 3.89108 44.6225 5.26628 44.6225 6.70766V21.0471C44.6225 22.697 45.7132 24.1444 47.2892 24.586L55.105 26.776C57.8892 27.5561 60.6439 25.444 60.6439 22.5292V19.1124C60.6439 18.2532 60.3453 17.4212 59.8 16.7611L59.5728 16.4861Z" fill="white"/>
<path d="M65.3775 10.6638L62.4645 13.3671V24.4061C62.4645 27.7834 59.2917 30.2437 56.0561 29.3754L55.4942 29.2246C54.7779 29.0323 54.0427 29.4622 53.8521 30.1848L53.7933 30.4078C53.6027 31.1303 54.0289 31.8719 54.7452 32.0641L55.3072 32.215C60.3917 33.5795 65.3775 29.7133 65.3775 24.4061V10.6638Z" fill="white"/>
<path d="M65.3775 10.6638L62.4645 13.3671V24.4061C62.4645 27.7834 59.2917 30.2437 56.0561 29.3754L55.4942 29.2246C54.7779 29.0323 54.0427 29.4622 53.8521 30.1848L53.7933 30.4078C53.6027 31.1303 54.0289 31.8719 54.7452 32.0641L55.3072 32.215C60.3917 33.5795 65.3775 29.7133 65.3775 24.4061V10.6638Z" fill="#4DD0E1"/>
<path d="M36.775 49.272H39.8014C41.344 49.272 42.6865 48.5118 42.6865 46.825C42.6865 45.9698 42.2508 45.1145 41.3323 44.8413V44.8175C41.9682 44.4731 42.345 43.796 42.345 43.012C42.345 41.6222 41.2734 40.8382 39.7543 40.8382H36.775V49.272ZM38.2941 44.283V42.1567H39.7425C40.4373 42.1567 40.8024 42.5962 40.8024 43.2021C40.8024 43.8079 40.4255 44.283 39.7661 44.283H38.2941ZM38.2941 47.9535V45.5184H39.9192C40.6846 45.5184 41.1321 46.0292 41.1321 46.73C41.1321 47.4427 40.6964 47.9535 39.9192 47.9535H38.2941Z" fill="#4DD0E1"/>
<path d="M44.0856 44.9957C44.0856 47.4783 45.8756 49.4145 48.4074 49.4145C50.9393 49.4145 52.7292 47.4783 52.7292 44.9957C52.7292 42.5844 50.9393 40.6957 48.4074 40.6957C45.8756 40.6957 44.0856 42.5844 44.0856 44.9957ZM45.6519 44.9957C45.6519 43.3565 46.8059 42.0973 48.4074 42.0973C50.009 42.0973 51.163 43.3565 51.163 44.9957C51.163 46.7062 50.009 48.0129 48.4074 48.0129C46.8059 48.0129 45.6519 46.7062 45.6519 44.9957Z" fill="#4DD0E1"/>
<path d="M54.1219 44.9957C54.1219 47.4783 55.9118 49.4145 58.4437 49.4145C60.9755 49.4145 62.7655 47.4783 62.7655 44.9957C62.7655 42.5844 60.9755 40.6957 58.4437 40.6957C55.9118 40.6957 54.1219 42.5844 54.1219 44.9957ZM55.6881 44.9957C55.6881 43.3565 56.8422 42.0973 58.4437 42.0973C60.0452 42.0973 61.1993 43.3565 61.1993 44.9957C61.1993 46.7062 60.0452 48.0129 58.4437 48.0129C56.8422 48.0129 55.6881 46.7062 55.6881 44.9957Z" fill="#4DD0E1"/>
<path d="M64.6528 49.272H66.1718V45.5896H67.2552L69.2925 49.272H71.0118L68.5035 44.8769V44.8532L70.8705 40.8382H69.2218L67.2552 44.2711H66.1718V40.8382H64.6528V49.272Z" fill="#4DD0E1"/>
<path d="M71.9149 48.2623C72.6686 49.0226 73.7402 49.4145 74.7765 49.4145C76.5664 49.4145 77.5556 48.2861 77.5556 46.92C77.5556 44.2355 73.6578 44.6394 73.6578 43.0714C73.6578 42.4893 74.1641 42.1092 74.9296 42.1092C75.589 42.1092 76.3074 42.4299 76.7666 42.8457L77.4379 41.5984C76.7784 40.9926 75.8599 40.6957 74.9885 40.6957C73.3634 40.6957 72.1387 41.6578 72.1387 43.1427C72.1387 45.7678 76.0365 45.4352 76.0365 47.0388C76.0365 47.609 75.5655 48.001 74.8118 48.001C74.0346 48.001 73.2338 47.5615 72.7393 47.1101L71.9149 48.2623Z" fill="#4DD0E1"/>
<path d="M81.3197 49.272H82.827V42.1567H85.5708V40.8382H78.5759V42.1567H81.3197V49.272Z" fill="#4DD0E1"/>
<path d="M86.3089 44.9957C86.3089 47.4783 88.0989 49.4145 90.6307 49.4145C93.1626 49.4145 94.9525 47.4783 94.9525 44.9957C94.9525 42.5844 93.1626 40.6957 90.6307 40.6957C88.0989 40.6957 86.3089 42.5844 86.3089 44.9957ZM87.8751 44.9957C87.8751 43.3565 89.0292 42.0973 90.6307 42.0973C92.2323 42.0973 93.3863 43.3565 93.3863 44.9957C93.3863 46.7062 92.2323 48.0129 90.6307 48.0129C89.0292 48.0129 87.8751 46.7062 87.8751 44.9957Z" fill="#4DD0E1"/>
<path d="M96.8398 49.272H98.3589V46.1242H99.8191L101.468 49.272H103.175L101.456 46.1361C101.291 45.8272 101.185 45.6966 101.185 45.6966V45.6728C102.068 45.3164 102.586 44.3662 102.586 43.3684C102.586 42.228 102.033 41.4203 101.173 41.0639C100.82 40.9095 100.42 40.8382 99.5954 40.8382H96.8398V49.272ZM98.3589 44.7938V42.1567H99.4658C99.9251 42.1567 100.172 42.2043 100.384 42.2993C100.844 42.4893 101.044 42.917 101.044 43.4515C101.044 44.283 100.537 44.7938 99.7249 44.7938H98.3589Z" fill="#4DD0E1"/>
<path d="M104.726 49.272H109.919V47.9535H106.245V45.6847H109.059V44.3662H106.245V42.1567H109.73V40.8382H104.726V49.272Z" fill="#4DD0E1"/>
<path d="M21.3931 40.7956H23.2148V49.268H21.3931V40.7956Z" fill="white"/>
<path d="M30.7272 49.2843L28.6475 46.3734L26.5518 49.268H24.4399L27.5996 44.9099L24.6011 40.7956H26.6969L28.6314 43.4788L30.566 40.7956H32.6779L29.6793 44.9261L32.823 49.268H30.7272V49.2843Z" fill="white"/>
<path d="M15.9119 40.6819C14.864 40.6819 13.9128 41.1535 13.268 41.8853C12.6231 41.1535 11.6881 40.6819 10.6402 40.6819C8.70565 40.6819 7.12577 42.2756 7.12577 44.227V49.2844H8.88299V44.227C8.88299 43.2513 9.67293 42.4544 10.6402 42.4544C11.6075 42.4544 12.3974 43.2513 12.3974 44.227V49.2844H14.1547V44.227C14.1547 43.2513 14.9446 42.4544 15.9119 42.4544C16.8792 42.4544 17.6691 43.2513 17.6691 44.227V49.2844H19.4263V44.227C19.4263 42.2756 17.8464 40.6819 15.9119 40.6819Z" fill="white"/>
<path d="M1.37031 52H0V50.2925L1.37031 50.2763C2.77286 50.2763 3.28875 49.5933 3.28875 48.1785V40.7956H5.1427V48.1947C5.1427 50.6503 3.80463 52 1.37031 52Z" fill="white"/>
<path fill-rule="evenodd" clip-rule="evenodd" d="M36.6938 49.3539V40.7563H39.7543C40.5268 40.7563 41.1941 40.9556 41.6701 41.34C42.1482 41.7261 42.4263 42.2937 42.4263 43.012C42.4263 43.7683 42.0866 44.4338 41.5014 44.8123C42.3633 45.1421 42.7678 45.9901 42.7678 46.825C42.7678 47.6933 42.4208 48.3296 41.8713 48.7465C41.3248 49.1611 40.5846 49.3539 39.8014 49.3539H36.6938ZM41.4118 44.8668C41.3906 44.8595 41.3691 44.8525 41.3474 44.8458C41.3424 44.8443 41.3373 44.8428 41.3323 44.8413V44.8175C41.335 44.816 41.3378 44.8145 41.3406 44.813C41.3615 44.8015 41.3822 44.7897 41.4027 44.7774C41.9959 44.4222 42.345 43.7666 42.345 43.012C42.345 41.6222 41.2734 40.8382 39.7543 40.8382H36.775V49.272H39.8014C41.344 49.272 42.6865 48.5118 42.6865 46.825C42.6865 45.9948 42.276 45.1646 41.4118 44.8668ZM64.5716 49.3539V40.7563H66.2531V44.1892H67.2084L69.175 40.7563H71.0133L68.5907 44.8655L71.1523 49.3539H69.2448L67.2076 45.6716H66.2531V49.3539H64.5716ZM67.2552 45.5896L69.2925 49.272H71.0118L68.5035 44.8769V44.8532L70.8705 40.8382H69.2218L67.2552 44.2711H66.1718V40.8382H64.6528V49.272H66.1718V45.5896H67.2552ZM71.8086 48.2709L72.7265 46.988L72.7938 47.0494C73.2793 47.4924 74.0614 47.9191 74.8118 47.9191C75.1755 47.9191 75.4623 47.8245 75.6564 47.6695C75.8488 47.5158 75.9553 47.299 75.9553 47.0388C75.9553 46.6794 75.74 46.4211 75.3838 46.1918C75.1138 46.0179 74.7771 45.8693 74.4166 45.7103C74.2978 45.6579 74.1765 45.6044 74.0541 45.5485C73.5659 45.3253 73.0672 45.0658 72.6908 44.6918C72.3113 44.3148 72.0575 43.8228 72.0575 43.1427C72.0575 42.3756 72.3747 41.7408 72.9023 41.2993C73.4288 40.8589 74.1606 40.6138 74.9885 40.6138C75.8765 40.6138 76.8157 40.9161 77.4926 41.5379L77.5396 41.5811L76.789 42.976L76.7124 42.9067C76.266 42.5025 75.5664 42.1912 74.9296 42.1912C74.5592 42.1912 74.2599 42.2832 74.0553 42.4376C73.8528 42.5905 73.739 42.8071 73.739 43.0714C73.739 43.4206 73.9527 43.6677 74.3091 43.8868C74.5712 44.0479 74.8958 44.1851 75.2443 44.3324C75.3733 44.387 75.5057 44.4429 75.6393 44.502C76.1278 44.7178 76.6269 44.9729 77.0037 45.3484C77.3835 45.7269 77.6369 46.2256 77.6369 46.9201C77.6369 47.6235 77.3819 48.2692 76.8934 48.7389C76.4048 49.2086 75.6887 49.4965 74.7765 49.4965C73.7213 49.4965 72.6282 49.0976 71.8575 48.3203L71.8086 48.2709ZM81.2385 49.3539V42.2387H78.4947V40.7563H85.6521V42.2387H82.9083V49.3539H81.2385ZM82.827 49.272H81.3197V42.1567H78.5759V40.8382H85.5708V42.1567H82.827V49.272ZM96.7586 49.3539V40.7563H99.5954C100.423 40.7563 100.837 40.8276 101.205 40.9885C102.097 41.3588 102.668 42.1982 102.668 43.3684C102.668 44.3605 102.168 45.3174 101.298 45.7133C101.307 45.7255 101.316 45.7394 101.326 45.7551C101.375 45.8285 101.444 45.9405 101.527 46.097L103.313 49.3539H101.419L99.7702 46.2061H98.4401V49.3539H96.7586ZM99.8191 46.1242L101.468 49.272H103.175L101.456 46.1361C101.349 45.9349 101.266 45.8093 101.222 45.7462C101.215 45.7371 101.21 45.7292 101.205 45.7227C101.192 45.705 101.185 45.6966 101.185 45.6966V45.6728C101.205 45.6648 101.225 45.6565 101.244 45.6479C101.246 45.6472 101.247 45.6465 101.249 45.6458C102.093 45.2702 102.586 44.3419 102.586 43.3684C102.586 42.228 102.033 41.4203 101.173 41.0639C100.82 40.9095 100.42 40.8382 99.5954 40.8382H96.8398V49.272H98.3589V46.1242H99.8191ZM100.384 42.2993C100.172 42.2043 99.9251 42.1567 99.4658 42.1567H98.3589V44.7938H99.7249C100.537 44.7938 101.044 44.283 101.044 43.4515C101.044 42.917 100.844 42.4893 100.384 42.2993ZM98.4401 44.7119H99.7249C100.114 44.7119 100.422 44.5899 100.631 44.3767C100.842 44.1635 100.963 43.8504 100.963 43.4515C100.963 42.9378 100.772 42.5484 100.354 42.3751L100.351 42.3742C100.154 42.2857 99.9198 42.2387 99.4659 42.2387H98.4401V44.7119ZM104.644 49.3539V40.7563H109.812V42.2387H106.326V44.2842H109.14V45.7666H106.326V47.8716H110V49.3539H104.644ZM109.919 47.9535V49.272H104.726V40.8382H109.73V42.1567H106.245V44.3662H109.059V45.6847H106.245V47.9535H109.919ZM38.3753 42.2387V44.2011H39.7661C40.0753 44.2011 40.3118 44.0903 40.4717 43.9144C40.6323 43.7375 40.7212 43.4881 40.7212 43.2021C40.7212 42.9156 40.6351 42.6764 40.4747 42.5092C40.3147 42.3426 40.0725 42.2387 39.7425 42.2387H38.3753ZM38.3753 45.6003V47.8716H39.9192C40.2895 47.8716 40.5702 47.7504 40.7585 47.5523C40.9473 47.3537 41.0509 47.0696 41.0509 46.73C41.0509 46.3972 40.9449 46.116 40.7545 45.9185C40.5644 45.7213 40.2834 45.6003 39.9192 45.6003H38.3753ZM48.4075 49.4965C45.8285 49.4965 44.0045 47.5212 44.0045 44.9957C44.0045 42.5394 45.8305 40.6138 48.4075 40.6138C50.9844 40.6138 52.8104 42.5394 52.8104 44.9957C52.8104 47.5212 50.9864 49.4965 48.4075 49.4965ZM48.4075 42.1793C46.8548 42.1793 45.7331 43.3976 45.7331 44.9957C45.7331 46.6683 46.8576 47.931 48.4075 47.931C49.9573 47.931 51.0818 46.6683 51.0818 44.9957C51.0818 43.3976 49.9601 42.1793 48.4075 42.1793ZM58.4437 49.4965C55.8647 49.4965 54.0407 47.5212 54.0407 44.9957C54.0407 42.5394 55.8667 40.6138 58.4437 40.6138C61.0207 40.6138 62.8467 42.5394 62.8467 44.9957C62.8467 47.5212 61.0227 49.4965 58.4437 49.4965ZM58.4437 42.1793C56.891 42.1793 55.7693 43.3976 55.7693 44.9957C55.7693 46.6683 56.8939 47.931 58.4437 47.931C59.9935 47.931 61.1181 46.6683 61.1181 44.9957C61.1181 43.3976 59.9964 42.1793 58.4437 42.1793ZM76.7038 42.7908C76.2436 42.402 75.5597 42.1092 74.9296 42.1092C74.1641 42.1092 73.6578 42.4893 73.6578 43.0714C73.6578 43.7506 74.3892 44.0598 75.2184 44.4103C76.3034 44.869 77.5556 45.3984 77.5556 46.92C77.5556 48.2861 76.5664 49.4145 74.7765 49.4145C73.7402 49.4145 72.6686 49.0226 71.9149 48.2623L72.7393 47.1101C72.7592 47.1283 72.7796 47.1464 72.8005 47.1645C73.2983 47.5962 74.0659 48.001 74.8118 48.001C75.5655 48.001 76.0365 47.609 76.0365 47.0388C76.0365 46.3353 75.2864 46.0045 74.4442 45.633C73.3668 45.1578 72.1387 44.6162 72.1387 43.1427C72.1387 41.6578 73.3634 40.6957 74.9885 40.6957C75.8599 40.6957 76.7784 40.9926 77.4379 41.5984L76.7666 42.8457C76.7462 42.8272 76.7252 42.8089 76.7038 42.7908ZM90.6308 49.4965C88.0518 49.4965 86.2278 47.5212 86.2278 44.9957C86.2278 42.5394 88.0538 40.6138 90.6308 40.6138C93.2077 40.6138 95.0337 42.5394 95.0337 44.9957C95.0337 47.5212 93.2098 49.4965 90.6308 49.4965ZM90.6308 42.1793C89.0781 42.1793 87.9564 43.3976 87.9564 44.9957C87.9564 46.6683 89.081 47.931 90.6308 47.931C92.1806 47.931 93.3051 46.6683 93.3051 44.9957C93.3051 43.3976 92.1835 42.1793 90.6308 42.1793ZM44.0856 44.9957C44.0856 47.4783 45.8756 49.4145 48.4074 49.4145C50.9393 49.4145 52.7292 47.4783 52.7292 44.9957C52.7292 42.5844 50.9393 40.6957 48.4074 40.6957C45.8756 40.6957 44.0856 42.5844 44.0856 44.9957ZM45.6519 44.9957C45.6519 43.3565 46.8059 42.0973 48.4074 42.0973C50.009 42.0973 51.163 43.3565 51.163 44.9957C51.163 46.7062 50.009 48.0129 48.4074 48.0129C46.8059 48.0129 45.6519 46.7062 45.6519 44.9957ZM38.2941 42.1567H39.7425C40.4373 42.1567 40.8024 42.5962 40.8024 43.2021C40.8024 43.8079 40.4255 44.283 39.7661 44.283H38.2941V42.1567ZM38.2941 45.5184H39.9192C40.6846 45.5184 41.1321 46.0292 41.1321 46.73C41.1321 47.4427 40.6964 47.9535 39.9192 47.9535H38.2941V45.5184ZM58.4437 49.4145C55.9118 49.4145 54.1219 47.4783 54.1219 44.9957C54.1219 42.5844 55.9118 40.6957 58.4437 40.6957C60.9755 40.6957 62.7655 42.5844 62.7655 44.9957C62.7655 47.4783 60.9755 49.4145 58.4437 49.4145ZM58.4437 42.0973C56.8422 42.0973 55.6881 43.3565 55.6881 44.9957C55.6881 46.7062 56.8422 48.0129 58.4437 48.0129C60.0452 48.0129 61.1993 46.7062 61.1993 44.9957C61.1993 43.3565 60.0452 42.0973 58.4437 42.0973ZM90.6307 49.4145C88.0989 49.4145 86.3089 47.4783 86.3089 44.9957C86.3089 42.5844 88.0989 40.6957 90.6307 40.6957C93.1626 40.6957 94.9525 42.5844 94.9525 44.9957C94.9525 47.4783 93.1626 49.4145 90.6307 49.4145ZM90.6307 42.0973C89.0292 42.0973 87.8751 43.3565 87.8751 44.9957C87.8751 46.7062 89.0292 48.0129 90.6307 48.0129C92.2323 48.0129 93.3863 46.7062 93.3863 44.9957C93.3863 43.3565 92.2323 42.0973 90.6307 42.0973Z" fill="#4DD0E1"/>
</svg>
