<svg width="175" height="24" viewBox="0 0 175 24" fill="none" xmlns="http://www.w3.org/2000/svg">
<path d="M76.606 15.928H80.6502C82.7116 15.928 84.5055 14.9209 84.5055 12.6864C84.5055 11.5534 83.9232 10.4204 82.6958 10.0585V10.027C83.5456 9.57068 84.0491 8.67373 84.0491 7.63516C84.0491 5.79406 82.6172 4.75549 80.5872 4.75549H76.606V15.928ZM78.636 9.31891V6.50218H80.5715C81.4999 6.50218 81.9877 7.08441 81.9877 7.88694C81.9877 8.68947 81.4842 9.31891 80.603 9.31891H78.636ZM78.636 14.1813V10.9554H80.8075C81.8304 10.9554 82.4283 11.6321 82.4283 12.5605C82.4283 13.5047 81.8461 14.1813 80.8075 14.1813H78.636Z" fill="#4DD0E1"/>
<path d="M86.3751 10.2631C86.3751 13.5519 88.7669 16.1168 92.1502 16.1168C95.5334 16.1168 97.9252 13.5519 97.9252 10.2631C97.9252 7.06867 95.5334 4.56666 92.1502 4.56666C88.7669 4.56666 86.3751 7.06867 86.3751 10.2631ZM88.468 10.2631C88.468 8.0915 90.0101 6.4235 92.1502 6.4235C94.2902 6.4235 95.8324 8.0915 95.8324 10.2631C95.8324 12.529 94.2902 14.26 92.1502 14.26C90.0101 14.26 88.468 12.529 88.468 10.2631Z" fill="#4DD0E1"/>
<path d="M99.7863 10.2631C99.7863 13.5519 102.178 16.1168 105.561 16.1168C108.945 16.1168 111.336 13.5519 111.336 10.2631C111.336 7.06867 108.945 4.56666 105.561 4.56666C102.178 4.56666 99.7863 7.06867 99.7863 10.2631ZM101.879 10.2631C101.879 8.0915 103.421 6.4235 105.561 6.4235C107.701 6.4235 109.244 8.0915 109.244 10.2631C109.244 12.529 107.701 14.26 105.561 14.26C103.421 14.26 101.879 12.529 101.879 10.2631Z" fill="#4DD0E1"/>
<path d="M113.858 15.928H115.888V11.0499H117.336L120.058 15.928H122.356L119.004 10.1057V10.0742L122.167 4.75549H119.964L117.336 9.30317H115.888V4.75549H113.858V15.928Z" fill="#4DD0E1"/>
<path d="M123.563 14.5904C124.57 15.5975 126.002 16.1168 127.386 16.1168C129.778 16.1168 131.1 14.6219 131.1 12.8123C131.1 9.25596 125.892 9.79098 125.892 7.71384C125.892 6.94278 126.568 6.43923 127.591 6.43923C128.472 6.43923 129.432 6.8641 130.046 7.41486L130.943 5.76259C130.062 4.96006 128.834 4.56666 127.67 4.56666C125.498 4.56666 123.862 5.84127 123.862 7.80826C123.862 11.2859 129.07 10.8453 129.07 12.9696C129.07 13.725 128.441 14.2442 127.434 14.2442C126.395 14.2442 125.325 13.662 124.664 13.0641L123.563 14.5904Z" fill="#4DD0E1"/>
<path d="M136.13 15.928H138.144V6.50218H141.811V4.75549H132.464V6.50218H136.13V15.928Z" fill="#4DD0E1"/>
<path d="M142.797 10.2631C142.797 13.5519 145.189 16.1168 148.572 16.1168C151.955 16.1168 154.347 13.5519 154.347 10.2631C154.347 7.06867 151.955 4.56666 148.572 4.56666C145.189 4.56666 142.797 7.06867 142.797 10.2631ZM144.89 10.2631C144.89 8.0915 146.432 6.4235 148.572 6.4235C150.712 6.4235 152.254 8.0915 152.254 10.2631C152.254 12.529 150.712 14.26 148.572 14.26C146.432 14.26 144.89 12.529 144.89 10.2631Z" fill="#4DD0E1"/>
<path d="M156.869 15.928H158.899V11.758H160.85L163.053 15.928H165.335L163.038 11.7737C162.817 11.3646 162.676 11.1915 162.676 11.1915V11.16C163.856 10.6879 164.548 9.42906 164.548 8.10724C164.548 6.59659 163.809 5.52655 162.66 5.05447C162.188 4.84991 161.653 4.75549 160.551 4.75549H156.869V15.928ZM158.899 9.99555V6.50218H160.378C160.992 6.50218 161.322 6.56512 161.606 6.69101C162.219 6.94278 162.487 7.50928 162.487 8.21739C162.487 9.31891 161.81 9.99555 160.724 9.99555H158.899Z" fill="#4DD0E1"/>
<path d="M167.407 15.928H174.346V14.1813H169.437V11.1757H173.197V9.42906H169.437V6.50218H174.094V4.75549H167.407V15.928Z" fill="#4DD0E1"/>
<path d="M56.0516 4.69909H58.4859V15.9227H56.0516V4.69909Z" fill="#0A2044"/>
<path d="M68.5245 15.9443L65.7456 12.0882L62.945 15.9227H60.123L64.3453 10.1493L60.3384 4.69909H63.1389L65.724 8.2536L68.3091 4.69909H71.1312L67.1243 10.1709L71.3251 15.9227H68.5245V15.9443Z" fill="#0A2044"/>
<path d="M48.7272 4.54843C47.327 4.54843 46.056 5.17316 45.1943 6.14257C44.3326 5.17316 43.0831 4.54843 41.6828 4.54843C39.0977 4.54843 36.9866 6.65959 36.9866 9.24468V15.9444H39.3347V9.24468C39.3347 7.95214 40.3903 6.89656 41.6828 6.89656C42.9754 6.89656 44.031 7.95214 44.031 9.24468V15.9444H46.3791V9.24468C46.3791 7.95214 47.4347 6.89656 48.7272 6.89656C50.0198 6.89656 51.0754 7.95214 51.0754 9.24468V15.9444H53.4235V9.24468C53.4235 6.65959 51.3123 4.54843 48.7272 4.54843Z" fill="#0A2044"/>
<path d="M29.2957 19.5419H27.4646V17.2799L29.2957 17.2584C31.1699 17.2584 31.8593 16.3536 31.8593 14.4794V4.69909H34.3367V14.5009C34.3367 17.7538 32.5486 19.5419 29.2957 19.5419Z" fill="#0A2044"/>
<path fill-rule="evenodd" clip-rule="evenodd" d="M76.4975 16.0365V4.64698H80.5872C81.6194 4.64698 82.5112 4.91093 83.1473 5.42021C83.7862 5.93176 84.1577 6.6836 84.1577 7.63517C84.1577 8.63704 83.7038 9.51869 82.9218 10.02C84.0735 10.457 84.614 11.5803 84.614 12.6864C84.614 13.8366 84.1504 14.6796 83.4161 15.2319C82.6858 15.7811 81.6967 16.0365 80.6502 16.0365H76.4975ZM82.8021 10.0923C82.7738 10.0826 82.7451 10.0734 82.716 10.0645C82.7093 10.0625 82.7026 10.0605 82.6958 10.0585V10.027C82.6995 10.025 82.7032 10.0231 82.7069 10.0211C82.735 10.0058 82.7626 9.99011 82.7899 9.97391C83.5826 9.5033 84.0491 8.63483 84.0491 7.63516C84.0491 5.79406 82.6172 4.75549 80.5872 4.75549H76.606V15.928H80.6502C82.7116 15.928 84.5055 14.9209 84.5055 12.6864C84.5055 11.5866 83.9569 10.4868 82.8021 10.0923ZM113.75 16.0365V4.64698H115.997V9.19466H117.273L119.901 4.64698H122.358L119.121 10.0906L122.543 16.0365H119.995L117.272 11.1584H115.997V16.0365H113.75ZM117.336 11.0499L120.058 15.928H122.356L119.004 10.1057V10.0742L122.167 4.75549H119.964L117.336 9.30317H115.888V4.75549H113.858V15.928H115.888V11.0499H117.336ZM123.421 14.6019L124.647 12.9023L124.737 12.9836C125.386 13.5705 126.431 14.1357 127.434 14.1357C127.92 14.1357 128.303 14.0104 128.562 13.8051C128.819 13.6016 128.962 13.3143 128.962 12.9696C128.962 12.4935 128.674 12.1513 128.198 11.8475C127.837 11.6172 127.387 11.4204 126.905 11.2097C126.747 11.1403 126.585 11.0694 126.421 10.9953C125.769 10.6997 125.102 10.3558 124.599 9.86045C124.092 9.36098 123.753 8.7093 123.753 7.80827C123.753 6.79206 124.177 5.95119 124.882 5.36632C125.585 4.78283 126.563 4.45815 127.67 4.45815C128.856 4.45815 130.111 4.85863 131.016 5.68236L131.079 5.73963L130.076 7.58744L129.973 7.49564C129.377 6.96024 128.442 6.54777 127.591 6.54777C127.096 6.54777 126.696 6.66972 126.423 6.87429C126.152 7.07681 126 7.36375 126 7.71385C126 8.17643 126.286 8.50383 126.762 8.79399C127.112 9.0074 127.546 9.18918 128.012 9.38434C128.184 9.45662 128.361 9.53074 128.539 9.60898C129.192 9.89493 129.859 10.2329 130.363 10.7302C130.87 11.2317 131.209 11.8924 131.209 12.8123C131.209 13.7441 130.868 14.5995 130.215 15.2217C129.562 15.844 128.605 16.2254 127.386 16.2254C125.976 16.2254 124.516 15.697 123.486 14.6672L123.421 14.6019ZM136.021 16.0365V6.61071H132.355V4.64698H141.919V6.61071H138.253V16.0365H136.021ZM138.144 15.928H136.13V6.50218H132.464V4.75549H141.811V6.50218H138.144V15.928ZM156.761 16.0365V4.64698H160.551C161.657 4.64698 162.21 4.74145 162.702 4.95454C163.895 5.44507 164.657 6.55713 164.657 8.10725C164.657 9.42161 163.989 10.6892 162.827 11.2137C162.838 11.2299 162.85 11.2483 162.864 11.269C162.929 11.3663 163.021 11.5147 163.133 11.722L165.519 16.0365H162.988L160.785 11.8665H159.008V16.0365H156.761ZM160.85 11.758L163.053 15.928H165.335L163.038 11.7737C162.894 11.5072 162.784 11.3409 162.725 11.2573C162.716 11.2452 162.708 11.2348 162.702 11.2261C162.685 11.2027 162.676 11.1915 162.676 11.1915V11.16C162.702 11.1494 162.728 11.1384 162.755 11.127C162.757 11.1261 162.759 11.1251 162.761 11.1242C163.889 10.6267 164.548 9.39694 164.548 8.10724C164.548 6.59659 163.809 5.52655 162.66 5.05447C162.188 4.84991 161.653 4.75549 160.551 4.75549H156.869V15.928H158.899V11.758H160.85ZM161.606 6.69101C161.322 6.56512 160.992 6.50218 160.378 6.50218H158.899V9.99555H160.724C161.81 9.99555 162.487 9.31891 162.487 8.21739C162.487 7.50928 162.219 6.94278 161.606 6.69101ZM159.008 9.88704H160.724C161.244 9.88704 161.655 9.72546 161.936 9.44306C162.216 9.16059 162.378 8.74576 162.378 8.2174C162.378 7.53685 162.124 7.02101 161.564 6.79142L161.561 6.79023C161.298 6.67306 160.985 6.61071 160.378 6.61071H159.008V9.88704ZM167.298 16.0365V4.64698H174.203V6.61071H169.545V9.32054H173.306V11.2843H169.545V14.0728H174.455V16.0365H167.298ZM174.346 14.1813V15.928H167.407V4.75549H174.094V6.50218H169.437V9.42906H173.197V11.1757H169.437V14.1813H174.346ZM78.7445 6.61071V9.21039H80.603C81.0162 9.21039 81.3323 9.06369 81.5458 8.83058C81.7605 8.5962 81.8792 8.26589 81.8792 7.88695C81.8792 7.50744 81.7642 7.19055 81.5498 6.9691C81.3361 6.74834 81.0124 6.61071 80.5715 6.61071H78.7445ZM78.7445 11.064V14.0728H80.8076C81.3024 14.0728 81.6775 13.9122 81.9291 13.6499C82.1814 13.3867 82.3198 13.0104 82.3198 12.5605C82.3198 12.1197 82.1782 11.7472 81.9237 11.4855C81.6698 11.2243 81.2942 11.064 80.8076 11.064H78.7445ZM92.1502 16.2254C88.704 16.2254 86.2666 13.6087 86.2666 10.2631C86.2666 7.00914 88.7067 4.45815 92.1502 4.45815C95.5938 4.45815 98.0338 7.00914 98.0338 10.2631C98.0338 13.6087 95.5964 16.2254 92.1502 16.2254ZM92.1502 6.53203C90.0754 6.53203 88.5765 8.14598 88.5765 10.2631C88.5765 12.4787 90.0792 14.1515 92.1502 14.1515C94.2212 14.1515 95.7239 12.4787 95.7239 10.2631C95.7239 8.14598 94.225 6.53203 92.1502 6.53203ZM105.561 16.2254C102.115 16.2254 99.6778 13.6087 99.6778 10.2631C99.6778 7.00914 102.118 4.45815 105.561 4.45815C109.005 4.45815 111.445 7.00914 111.445 10.2631C111.445 13.6087 109.008 16.2254 105.561 16.2254ZM105.561 6.53203C103.487 6.53203 101.988 8.14598 101.988 10.2631C101.988 12.4787 103.49 14.1515 105.561 14.1515C107.632 14.1515 109.135 12.4787 109.135 10.2631C109.135 8.14598 107.636 6.53203 105.561 6.53203ZM129.962 7.34209C129.347 6.82713 128.433 6.43923 127.591 6.43923C126.568 6.43923 125.892 6.94278 125.892 7.71384C125.892 8.61363 126.869 9.02326 127.977 9.48761C129.427 10.0952 131.1 10.7965 131.1 12.8123C131.1 14.6219 129.778 16.1168 127.386 16.1168C126.002 16.1168 124.57 15.5975 123.563 14.5904L124.664 13.0641C124.691 13.0881 124.718 13.1122 124.746 13.1362C125.411 13.708 126.437 14.2442 127.434 14.2442C128.441 14.2442 129.07 13.725 129.07 12.9696C129.07 12.0377 128.068 11.5994 126.942 11.1073C125.503 10.4778 123.862 9.76026 123.862 7.80826C123.862 5.84127 125.498 4.56666 127.67 4.56666C128.834 4.56666 130.062 4.96006 130.943 5.76259L130.046 7.41486C130.019 7.39034 129.991 7.36609 129.962 7.34209ZM148.572 16.2254C145.126 16.2254 142.688 13.6087 142.688 10.2631C142.688 7.00914 145.129 4.45815 148.572 4.45815C152.016 4.45815 154.456 7.00914 154.456 10.2631C154.456 13.6087 152.018 16.2254 148.572 16.2254ZM148.572 6.53203C146.497 6.53203 144.998 8.14598 144.998 10.2631C144.998 12.4787 146.501 14.1515 148.572 14.1515C150.643 14.1515 152.146 12.4787 152.146 10.2631C152.146 8.14598 150.647 6.53203 148.572 6.53203ZM86.3751 10.2631C86.3751 13.5519 88.7669 16.1168 92.1502 16.1168C95.5334 16.1168 97.9252 13.5519 97.9252 10.2631C97.9252 7.06867 95.5334 4.56666 92.1502 4.56666C88.7669 4.56666 86.3751 7.06867 86.3751 10.2631ZM88.468 10.2631C88.468 8.0915 90.0101 6.4235 92.1502 6.4235C94.2902 6.4235 95.8324 8.0915 95.8324 10.2631C95.8324 12.529 94.2902 14.26 92.1502 14.26C90.0101 14.26 88.468 12.529 88.468 10.2631ZM78.636 6.50218H80.5715C81.4999 6.50218 81.9877 7.08441 81.9877 7.88694C81.9877 8.68947 81.4842 9.31891 80.603 9.31891H78.636V6.50218ZM78.636 10.9554H80.8075C81.8304 10.9554 82.4283 11.6321 82.4283 12.5605C82.4283 13.5047 81.8461 14.1813 80.8075 14.1813H78.636V10.9554ZM105.561 16.1168C102.178 16.1168 99.7863 13.5519 99.7863 10.2631C99.7863 7.06867 102.178 4.56666 105.561 4.56666C108.945 4.56666 111.336 7.06867 111.336 10.2631C111.336 13.5519 108.945 16.1168 105.561 16.1168ZM105.561 6.4235C103.421 6.4235 101.879 8.0915 101.879 10.2631C101.879 12.529 103.421 14.26 105.561 14.26C107.701 14.26 109.244 12.529 109.244 10.2631C109.244 8.0915 107.701 6.4235 105.561 6.4235ZM148.572 16.1168C145.189 16.1168 142.797 13.5519 142.797 10.2631C142.797 7.06867 145.189 4.56666 148.572 4.56666C151.955 4.56666 154.347 7.06867 154.347 10.2631C154.347 13.5519 151.955 16.1168 148.572 16.1168ZM148.572 6.4235C146.432 6.4235 144.89 8.0915 144.89 10.2631C144.89 12.529 146.432 14.26 148.572 14.26C150.712 14.26 152.254 12.529 152.254 10.2631C152.254 8.0915 150.712 6.4235 148.572 6.4235Z" fill="#4DD0E1"/>
<path d="M11.1395 12.1777C11.6403 11.6785 11.9376 10.9918 11.9376 10.2558V8.05671C11.9376 6.64231 11.0244 5.3897 9.67775 4.95706L5.01629 3.45737C4.87788 3.41284 4.72623 3.44554 4.61847 3.54313L3.45709 4.59494C3.22488 4.80524 3.30742 5.18807 3.60567 5.284L9.0138 7.02348C9.46267 7.1677 9.76712 7.58524 9.76712 8.05671V9.73723C9.76712 10.3698 9.16419 10.8277 8.55468 10.6584L5.62181 9.84375C5.11565 9.70315 4.61485 10.0838 4.61485 10.6091C4.61485 11.3228 5.09072 11.9489 5.77835 12.1399L6.90256 12.4526C8.5955 12.9229 9.76712 14.4643 9.76712 16.2214V16.6416C9.76712 17.3593 9.08293 17.8793 8.39143 17.6872L2.56786 16.0696C2.333 16.0043 2.17047 15.7905 2.17047 15.5467V4.95471C2.17047 4.49842 2.36198 4.06307 2.69834 3.75474L4.11538 2.45579C4.41053 2.18523 4.83068 2.09917 5.20844 2.2319L11.1176 4.3081C12.2957 4.722 13.1216 5.76707 13.2701 6.98415L15.0643 5.33354C14.4899 3.92375 13.334 2.78629 11.8371 2.26035L5.92792 0.184143C4.79465 -0.214033 3.5342 0.0441423 2.64874 0.855814L1.2317 2.15477C0.44686 2.8742 0 3.89002 0 4.95471V15.5467C0 16.7655 0.81267 17.8347 1.98695 18.1608L7.81051 19.7785C9.88503 20.3548 11.9376 18.7946 11.9376 16.6416V14.1177C11.9376 13.483 11.7151 12.8684 11.3088 12.3808L11.1395 12.1777Z" fill="#0A2044"/>
<path d="M15.4646 7.877L13.2941 9.87383V18.0279C13.2941 20.5227 10.9301 22.34 8.51922 21.6986L8.10051 21.5872C7.5668 21.4452 7.01902 21.7627 6.87702 22.2965L6.83319 22.4612C6.69119 22.9949 7.00875 23.5427 7.54246 23.6847L7.96117 23.7961C11.7496 24.804 15.4646 21.9482 15.4646 18.0279V7.877Z" fill="#0A2044"/>
<path d="M15.4646 7.877L13.2941 9.87383V18.0279C13.2941 20.5227 10.9301 22.34 8.51922 21.6986L8.10051 21.5872C7.5668 21.4452 7.01902 21.7627 6.87702 22.2965L6.83319 22.4612C6.69119 22.9949 7.00875 23.5427 7.54246 23.6847L7.96117 23.7961C11.7496 24.804 15.4646 21.9482 15.4646 18.0279V7.877Z" fill="#4DD0E1"/>
</svg>
