<svg width="160" height="160" viewBox="0 0 160 160" fill="none" xmlns="http://www.w3.org/2000/svg">
<path d="M159.763 79.8384C159.765 95.5703 155.102 110.95 146.363 124.031C137.624 137.113 125.203 147.309 110.669 153.331C96.1349 159.353 80.1418 160.929 64.7119 157.861C49.2819 154.793 35.1083 147.219 23.9835 136.095C12.8586 124.972 5.28215 110.799 2.21227 95.3696C-0.857605 79.94 0.716963 63.9467 6.73686 49.4121C12.7568 34.8774 22.9516 22.4544 36.0321 13.714C49.1126 4.97359 64.4913 0.308394 80.2232 0.308394C90.6784 0.270069 101.038 2.30094 110.705 6.284C120.372 10.2671 129.155 16.1236 136.548 23.5161C143.942 30.9087 149.799 39.6912 153.784 49.3575C157.768 59.0239 159.8 69.3831 159.763 79.8384Z" fill="white"/>
<path d="M107.513 58.6584V85.9584C111.419 87.4267 114.785 90.0511 117.161 93.4815C119.538 96.9119 120.812 100.985 120.813 105.158V120.028H89.9632V58.6584H107.513Z" fill="#0A2044"/>
<path d="M52.9932 58.6584V85.9584C49.0888 87.4283 45.7253 90.0534 43.3509 93.4837C40.9764 96.914 39.704 100.986 39.7032 105.158V120.028H70.5532V58.6584H52.9932Z" fill="#0A2044"/>
<path d="M107.513 58.6584C107.515 61.269 107.227 63.8716 106.653 66.4184C103.653 79.8284 92.9632 89.7284 80.2532 89.7284C65.1932 89.7284 52.9832 75.8184 52.9832 58.6484C52.9244 54.248 53.7491 49.8805 55.4084 45.8044C57.0676 41.7284 59.5278 38.0267 62.6432 34.9184C67.3254 30.2574 73.6468 27.6154 80.2532 27.5584C95.3132 27.5684 107.513 41.4884 107.513 58.6584Z" fill="#0A2044"/>
<path d="M137.503 135.048C131.918 140.84 125.489 145.752 118.433 149.618C116.085 150.912 113.672 152.084 111.203 153.128L110.963 153.228C107.454 154.702 103.841 155.915 100.153 156.858C99.3332 157.078 98.5132 157.278 97.6832 157.458H97.5532C96.2432 157.748 94.9332 158.008 93.5532 158.228C84.7355 159.715 75.731 159.715 66.9132 158.228C65.7432 158.028 64.5732 157.808 63.4232 157.548C62.6032 157.378 61.7832 157.188 60.9632 156.988C60.1432 156.788 59.2232 156.538 58.3632 156.288C55.5731 155.504 52.8316 154.556 50.1532 153.448L49.2932 153.098C46.9045 152.087 44.5682 150.955 42.2932 149.708C35.151 145.821 28.6457 140.864 23.0032 135.008L24.3732 129.608C25.3896 125.627 27.4739 122 30.4011 119.116C33.3283 116.233 36.9873 114.204 40.9832 113.248L42.2932 112.938L48.1532 111.538L50.1532 111.048L54.5632 109.998C55.6978 109.724 56.8005 109.332 57.8532 108.828L58.0032 108.748L58.5832 108.448C59.4189 108.001 60.2121 107.479 60.9532 106.888C61.5606 106.411 62.1321 105.889 62.6632 105.328C62.8832 105.098 63.0932 104.858 63.2932 104.618C63.6917 104.151 64.0623 103.66 64.4032 103.148C65.4569 101.593 66.2349 99.8678 66.7032 98.0484L67.7632 93.9284L68.0432 92.8184V92.7284L69.4032 87.4784L69.8032 85.9084H90.5532L92.1032 91.9084L92.2432 92.4484L92.3232 92.7484V92.8184L92.6132 93.9384L93.6732 98.0484C94.1372 99.8693 94.9155 101.595 95.9732 103.148C96.4222 103.82 96.9238 104.456 97.4732 105.048C98.7203 106.412 100.183 107.56 101.803 108.448C102.103 108.618 102.403 108.768 102.703 108.908C103.705 109.374 104.75 109.739 105.823 109.998H105.933L110.883 111.178L112.493 111.558L118.353 112.958L119.443 113.218C123.439 114.174 127.098 116.203 130.025 119.086C132.953 121.97 135.037 125.597 136.053 129.578L137.503 135.048Z" fill="#F9D8D0"/>
<path d="M98.5032 127.498H62.2332V147.278H98.5032V127.498Z" fill="#0A2044"/>
<path d="M92.3932 92.7984C90.6332 100.528 85.8732 106.068 80.2632 106.068C74.6532 106.068 69.8832 100.508 68.1232 92.7684L69.4732 87.5184L69.8832 85.9584H90.6332L92.1732 91.9584L92.3132 92.4984L92.3932 92.7984Z" fill="#0A2044"/>
<path d="M104.303 55.0284C104.304 55.8972 104.254 56.7654 104.153 57.6284C104.093 58.2184 103.883 60.2884 103.503 63.1184C103.383 64.0084 103.253 64.9684 103.103 65.9884C102.753 68.3684 102.313 70.9884 101.783 73.7084C100.503 80.1284 98.7132 86.5284 96.3732 88.8684C95.0832 90.1584 93.9132 91.3984 92.7732 92.5284C91.8658 93.4453 90.9041 94.3069 89.8932 95.1084L89.6932 95.2684C89.5332 95.3984 89.3632 95.5184 89.1932 95.6384C88.0201 96.4928 86.7258 97.167 85.3532 97.6384C83.7129 98.1854 81.9922 98.4525 80.2632 98.4284C78.6216 98.4519 76.987 98.2087 75.4232 97.7084C73.9575 97.2334 72.5769 96.5279 71.3332 95.6184C71.2132 95.5384 71.1032 95.4484 70.9932 95.3584L70.8432 95.2484C69.7588 94.3986 68.73 93.48 67.7632 92.4984C66.6132 91.3684 65.4432 90.1284 64.1532 88.8384C61.8232 86.5084 60.0332 80.1084 58.7632 73.6884C58.7632 73.5484 58.7132 73.4084 58.6832 73.2684C58.5532 72.5584 58.4132 71.8584 58.2932 71.1584L58.1132 70.1584C57.8632 68.7084 57.6432 67.3084 57.4432 65.9884C57.2932 64.9884 57.1632 63.9884 57.0432 63.1184C56.5932 59.7484 56.3732 57.4484 56.3732 57.4484C56.3032 56.6584 56.2532 55.8484 56.2532 55.0284C56.2532 54.8184 56.2532 54.6084 56.2532 54.3984C56.2532 53.9484 56.2532 53.5084 56.3232 53.0684C56.429 51.8045 56.6329 50.5507 56.9332 49.3184C56.9332 49.1784 56.9932 49.0484 57.0332 48.9084L57.0932 48.6684C58.4399 43.774 61.3038 39.4326 65.2732 36.2684H65.3232C69.1978 33.1644 73.9461 31.3497 78.9032 31.0784C79.3532 31.0784 79.8032 31.0784 80.2632 31.0784C85.7931 31.0726 91.1553 32.9766 95.4432 36.4684C96.0803 36.9804 96.6879 37.5279 97.2632 38.1084C100.378 41.2174 102.579 45.1231 103.623 49.3984C103.926 50.6298 104.127 51.884 104.223 53.1484C104.273 53.7184 104.303 54.3684 104.303 55.0284Z" fill="#F9D8D0"/>
<path d="M104.883 54.6484C104.884 55.5472 104.834 56.4453 104.733 57.3384C104.663 57.9484 104.453 60.0984 104.063 63.0184C103.943 63.9384 103.263 64.9384 103.063 66.0184C99.3732 66.0184 96.9432 62.9584 96.9432 59.2384V55.7984C96.9445 54.9781 96.7841 54.1656 96.4711 53.4074C96.1581 52.6492 95.6986 51.9601 95.1191 51.3796C94.5395 50.7991 93.8512 50.3386 93.0934 50.0243C92.3357 49.7101 91.5235 49.5484 90.7032 49.5484H69.8332C68.1756 49.5484 66.5859 50.2069 65.4138 51.379C64.2417 52.5511 63.5832 54.1408 63.5832 55.7984V59.2384C63.5815 60.1306 63.4041 61.0138 63.0609 61.8374C62.7177 62.6611 62.2156 63.409 61.5832 64.0384C61.0736 64.6605 60.4329 65.1623 59.7068 65.5081C58.9808 65.8538 58.1873 66.0349 57.3832 66.0384C57.2332 64.9884 56.5532 63.9884 56.3832 63.0384C55.9232 59.5584 55.6932 57.1784 55.6932 57.1784C55.6232 56.3584 55.5732 55.5184 55.5732 54.6684C55.5732 54.4584 55.5732 54.2384 55.5732 54.0184C55.5732 53.5584 55.5732 53.0984 55.6432 52.6484C55.7515 51.3412 55.9587 50.0442 56.2632 48.7684C56.2632 48.6184 56.3332 48.4884 56.3732 48.3384L56.4332 48.0984C57.8031 43.0473 60.7322 38.5574 64.8032 35.2684H64.8632C68.8157 32.0598 73.6801 30.1805 78.7632 29.8984C79.2232 29.8984 79.6832 29.8984 80.1532 29.8984C85.8261 29.8925 91.3242 31.8619 95.7032 35.4684C96.3538 36.0006 96.9747 36.5682 97.5632 37.1684C100.76 40.3938 103.011 44.4334 104.073 48.8484C104.383 50.1231 104.591 51.4206 104.693 52.7284C104.853 53.2984 104.883 53.9684 104.883 54.6484Z" fill="#0A2044"/>
<path d="M137.503 135.048C131.918 140.84 125.489 145.752 118.433 149.618C116.085 150.912 113.672 152.084 111.203 153.128L110.963 153.228C107.454 154.702 103.841 155.915 100.153 156.858C99.3332 157.078 98.5132 157.278 97.6832 157.458H97.5532C96.2432 157.748 94.9332 158.008 93.5532 158.228C84.7355 159.715 75.731 159.715 66.9132 158.228C65.7432 158.028 64.5732 157.808 63.4232 157.548C62.6032 157.378 61.7832 157.188 60.9632 156.988C60.1432 156.788 59.2232 156.538 58.3632 156.288C55.5731 155.504 52.8316 154.556 50.1532 153.448L49.2932 153.098C46.9045 152.087 44.5682 150.955 42.2932 149.708C35.151 145.821 28.6457 140.864 23.0032 135.008L24.3732 129.608C25.3896 125.627 27.4739 122 30.4011 119.117C33.3283 116.233 36.9873 114.204 40.9832 113.248L42.2932 112.938L48.1532 111.538L50.1532 111.048L54.5632 109.998L80.2732 146.048L105.973 110.048L110.923 111.228L112.533 111.608L118.393 113.008L119.483 113.268C123.479 114.224 127.138 116.253 130.065 119.137C132.993 122.02 135.077 125.647 136.093 129.628L137.503 135.048Z" fill="#4DD0E1"/>
<path d="M61.2233 60.5784H56.3932V91.8084H61.2233V60.5784Z" fill="#0A2044"/>
<path d="M104.973 60.5784H100.143V91.8084H104.973V60.5784Z" fill="#0A2044"/>
<circle cx="88.7357" cy="67.3206" r="2.89072" fill="#0A2044"/>
<circle cx="71.4041" cy="67.3206" r="2.89072" fill="#0A2044"/>
<path d="M81.2123 79.1365L81.2121 67.4432C81.2121 64.6817 83.4507 62.4431 86.2121 62.4431L92.7359 62.4431M67.212 62.4431L75.7359 62.4431" stroke="#0A2044" stroke-width="2" stroke-linecap="round"/>
<path d="M83.4301 83.5983C83.4301 85.2583 81.7401 86.5983 79.6501 86.5983C77.5601 86.5983 75.8801 85.2583 75.8801 83.5983C75.8772 83.3987 75.9041 83.1999 75.9601 83.0083C76.263 83.7389 76.7757 84.3633 77.4334 84.8026C78.0911 85.2419 78.8642 85.4763 79.6551 85.4763C80.446 85.4763 81.2191 85.2419 81.8768 84.8026C82.5345 84.3633 83.0472 83.7389 83.3501 83.0083C83.4061 83.1999 83.433 83.3987 83.4301 83.5983Z" fill="#0A2044"/>
</svg>
