<svg width="160" height="160" viewBox="0 0 160 160" fill="none" xmlns="http://www.w3.org/2000/svg">
<path d="M159.561 79.8302C159.559 95.5617 154.892 110.939 146.15 124.019C137.409 137.098 124.985 147.291 110.45 153.309C95.9154 159.328 79.9223 160.901 64.4935 157.83C49.0646 154.759 34.8929 147.182 23.7704 136.056C12.6479 124.931 5.07426 110.757 2.00713 95.3279C-1.05999 79.8982 0.517187 63.9056 6.53921 49.3723C12.5612 34.839 22.7576 22.4179 35.839 13.6795C48.9204 4.94123 64.2992 0.278218 80.0308 0.280196C90.4872 0.241847 100.848 2.27344 110.515 6.25786C120.183 10.2423 128.967 16.1008 136.36 23.4956C143.753 30.8904 149.609 39.6753 153.591 49.3439C157.573 59.0126 159.602 69.3737 159.561 79.8302Z" fill="white"/>
<path d="M64.2908 36.1002C64.2908 35.2413 64.4599 34.3909 64.7886 33.5974C65.1173 32.804 65.599 32.083 66.2063 31.4757C66.8136 30.8684 67.5346 30.3867 68.328 30.058C69.1215 29.7293 69.9719 29.5602 70.8308 29.5602H87.5908C92.6105 29.5628 97.4239 31.5581 100.973 35.1076C104.523 38.6571 106.518 43.4704 106.521 48.4902V68.8202H66.6608L64.2908 36.1002Z" fill="#0A2044"/>
<path d="M58.0408 71.1603H52.4408V43.8903C52.4419 42.4845 52.7921 41.1009 53.46 39.8639C54.1278 38.6268 55.0923 37.575 56.2671 36.8027C57.4418 36.0305 58.7899 35.5621 60.1903 35.4395C61.5908 35.3168 62.9997 35.5439 64.2908 36.1003C65.5608 42.8803 58.0408 71.1603 58.0408 71.1603Z" fill="#0A2044"/>
<path d="M92.1608 92.7802C90.4108 100.51 85.6408 106.05 80.0308 106.05C74.4208 106.05 69.6507 100.5 67.8907 92.7602L69.2508 87.5102L69.6508 85.9402H90.4008L91.9507 91.9402L92.0908 92.4802L92.1608 92.7802Z" fill="#4DD0E1"/>
<path d="M106.131 63.3603C116.471 51.7703 109.571 80.1103 103.861 76.8003C93.8108 70.9803 106.131 63.3603 106.131 63.3603Z" fill="#F9D8D0"/>
<path d="M137.281 135.04C131.891 140.621 125.72 145.391 118.961 149.2C108.213 155.257 96.1945 158.709 83.8708 159.28C82.6008 159.35 81.3208 159.38 80.0308 159.38C73.7629 159.384 67.5165 158.649 61.4207 157.19C53.2234 155.228 45.3939 151.963 38.2307 147.52C32.5819 144.023 27.3918 139.834 22.7808 135.05L24.1508 129.65C25.1656 125.667 27.2491 122.038 30.1765 119.152C33.1038 116.267 36.7636 114.237 40.7607 113.28L41.6608 113.07L51.6608 110.68L54.3907 110.03C56.4667 109.532 58.4262 108.635 60.1608 107.39C61.0027 106.8 61.7862 106.13 62.5008 105.39C64.4313 103.343 65.808 100.837 66.5008 98.1102L67.5608 93.9902L67.8408 92.8802V92.7902L69.2007 87.5402L69.6008 85.9702H90.3508L91.9008 91.9702L92.0407 92.5102L92.1208 92.8102V92.8802L92.4108 94.0002L93.4708 98.1102C94.4411 101.868 96.7033 105.164 99.8607 107.42C101.588 108.671 103.546 109.568 105.621 110.06L108.141 110.66L119.241 113.31C123.253 114.246 126.933 116.263 129.88 119.141C132.828 122.02 134.931 125.651 135.961 129.64L137.281 135.04Z" fill="#F9D8D0"/>
<path d="M92.1608 92.7802C90.4108 100.51 85.6408 106.05 80.0308 106.05C74.4208 106.05 69.6507 100.5 67.8907 92.7602L69.2508 87.5102L69.6508 85.9402H90.4008L91.9507 91.9402L92.0908 92.4802L92.1608 92.7802Z" fill="#0A2044"/>
<path d="M53.9607 63.3603C43.6307 51.7703 50.5207 80.1103 56.2407 76.8003C66.2507 70.9803 53.9607 63.3603 53.9607 63.3603Z" fill="#F9D8D0"/>
<path d="M104.071 55.0102C104.071 55.879 104.021 56.7472 103.921 57.6102C103.841 58.3902 103.491 61.7202 102.921 65.9602C102.581 68.3102 102.141 70.9602 101.621 73.5802C101.621 73.5802 101.621 73.6502 101.621 73.6802C100.351 80.1102 98.5608 86.5102 96.2208 88.8402C93.5808 91.4802 91.4608 93.8402 89.0408 95.6102C86.4246 97.4454 83.3065 98.43 80.1108 98.43C76.9151 98.43 73.797 97.4454 71.1808 95.6102C68.7708 93.8802 66.6408 91.4802 64.0008 88.8402C61.6608 86.5002 59.8708 80.0902 58.5908 73.6702C58.4308 72.8402 58.2808 72.0102 58.1308 71.1902L57.9508 70.1902C57.7008 68.7502 57.4808 67.3402 57.2808 66.0202C56.5608 61.1502 56.2108 57.4802 56.2108 57.4802C56.1302 56.676 56.0902 55.8684 56.0908 55.0602C56.0908 54.8502 56.0908 54.6402 56.0908 54.4302C56.135 52.576 56.3968 50.7333 56.8708 48.9402L56.9308 48.7002C58.2582 43.8475 61.0769 39.5345 64.9888 36.371C68.9007 33.2074 73.7078 31.3531 78.7308 31.0702C79.1908 31.0702 79.6408 31.0702 80.1108 31.0702C86.0043 31.0688 91.6923 33.2359 96.0907 37.1585C100.489 41.0811 103.29 46.485 103.961 52.3402C104.048 53.2274 104.085 54.1188 104.071 55.0102Z" fill="#F9D8D0"/>
<path d="M104.791 55.2102C104.791 56.1057 104.741 57.0004 104.641 57.8902C104.561 58.6902 102.871 65.9602 102.871 65.9602C68.3209 57.5702 65.5609 42.8802 65.5609 42.8802C65.5852 51.3238 62.6201 59.5035 57.1909 65.9702C56.8008 63.1729 56.2024 60.4085 55.4009 57.7002C55.3209 56.8902 55.2809 56.0502 55.2809 55.2102C55.2809 54.9902 55.2809 54.7802 55.2809 54.5602C55.3268 52.6489 55.5953 50.7494 56.0809 48.9002L56.1409 48.6602C57.5095 43.6615 60.4141 39.2192 64.4442 35.9606C68.4744 32.702 73.4264 30.792 78.6009 30.5002C79.0709 30.5002 79.5409 30.5002 80.0209 30.5002C86.1105 30.4992 91.9869 32.7423 96.5269 36.8008C101.067 40.8593 103.952 46.4486 104.631 52.5002C104.733 53.4 104.787 54.3047 104.791 55.2102Z" fill="#0A2044"/>
<path d="M137.281 135.09C129.862 142.784 120.969 148.903 111.133 153.083C101.296 157.262 90.7183 159.416 80.0308 159.416C69.3432 159.416 58.7652 157.262 48.9288 153.083C39.0924 148.903 30.1993 142.784 22.7808 135.09L24.1508 129.7C25.1566 125.708 27.2362 122.067 30.1643 119.172C33.0923 116.278 36.7569 114.24 40.7607 113.28L51.6707 110.68L54.3808 110.03C55.5922 109.742 56.7666 109.316 57.8808 108.76C64.7611 116.095 69.2081 121.353 80.0308 121.353C90.8534 121.353 95.3004 116.095 102.181 108.76C103.296 109.314 104.47 109.74 105.681 110.03L108.051 110.6L119.301 113.28C123.298 114.235 126.958 116.264 129.884 119.15C132.81 122.036 134.891 125.667 135.901 129.65L137.281 135.09Z" fill="#4DD0E1"/>
<path d="M100.161 154.261C100.163 155.097 100.11 155.932 100.001 156.761C86.883 160.152 73.1183 160.152 60.0006 156.761C59.8916 155.919 59.8382 155.07 59.8406 154.221C59.7808 151.532 60.2586 148.859 61.2461 146.358C62.2336 143.856 63.7109 141.577 65.5912 139.655C67.4714 137.732 69.7169 136.205 72.1956 135.162C74.6743 134.119 77.3364 133.582 80.0256 133.582C82.7148 133.582 85.3769 134.119 87.8557 135.162C90.3344 136.205 92.5798 137.732 94.4601 139.655C96.3404 141.577 97.8176 143.856 98.8051 146.358C99.7926 148.859 100.27 151.532 100.211 154.221L100.161 154.261Z" fill="white"/>
<circle cx="88.7357" cy="67.3206" r="2.89072" fill="#0A2044"/>
<circle cx="71.4041" cy="67.3206" r="2.89072" fill="#0A2044"/>
<path d="M81.2123 79.1365L81.2121 67.4432C81.2121 64.6817 83.4507 62.4431 86.2121 62.4431L92.7359 62.4431M67.212 62.4431L75.7359 62.4431" stroke="#0A2044" stroke-width="2" stroke-linecap="round"/>
<path d="M83.4301 83.5983C83.4301 85.2583 81.7401 86.5983 79.6501 86.5983C77.5601 86.5983 75.8801 85.2583 75.8801 83.5983C75.8772 83.3987 75.9041 83.1999 75.9601 83.0083C76.263 83.7389 76.7757 84.3633 77.4334 84.8026C78.0911 85.2419 78.8642 85.4763 79.6551 85.4763C80.446 85.4763 81.2191 85.2419 81.8768 84.8026C82.5345 84.3633 83.0472 83.7389 83.3501 83.0083C83.4061 83.1999 83.433 83.3987 83.4301 83.5983Z" fill="#0A2044"/>
</svg>
