<svg width="160" height="160" viewBox="0 0 160 160" fill="none" xmlns="http://www.w3.org/2000/svg">
<path d="M159.282 79.8083C159.29 95.5419 154.632 110.925 145.896 124.01C137.161 137.096 124.74 147.297 110.206 153.323C95.6725 159.349 79.6779 160.929 64.2457 157.864C48.8136 154.799 34.6372 147.225 23.5097 136.102C12.3822 124.979 4.8036 110.805 1.73241 95.3744C-1.33877 79.9434 0.235479 63.9481 6.25603 49.412C12.2766 34.8758 22.473 22.4517 35.5554 13.7111C48.6379 4.97059 64.0187 0.306313 79.7524 0.308289C90.2035 0.273966 100.558 2.30665 110.221 6.28937C119.883 10.2721 128.663 16.1262 136.054 23.5149C143.446 30.9036 149.303 39.681 153.29 49.3421C157.276 59.0032 159.313 69.3572 159.282 79.8083Z" fill="white"/>
<path d="M137.012 135.058C132.008 140.246 126.323 144.73 120.112 148.388L119.582 148.698C118.852 149.128 118.112 149.538 117.362 149.938L117.092 150.078C116.432 150.438 115.772 150.778 115.092 151.078L114.902 151.168C114.122 151.558 113.332 151.928 112.542 152.288L112.412 152.348C111.762 152.638 111.112 152.928 110.412 153.198C109.032 153.778 107.622 154.318 106.202 154.828C105.382 155.118 104.552 155.398 103.712 155.658C102.872 155.918 101.992 156.188 101.122 156.428L99.8224 156.778C99.0224 156.988 98.2124 157.188 97.4024 157.368L95.7024 157.738L95.1724 157.838H95.0624L94.7124 157.898L94.3524 157.968L93.7324 158.078L92.5624 158.278H92.4124C91.6724 158.398 90.9324 158.508 90.1924 158.608L89.1124 158.738L88.2224 158.838H87.8724H87.3624C86.6224 158.908 85.8824 158.968 85.1324 159.018L83.7924 159.098H83.6224C82.8524 159.098 82.0824 159.158 81.3024 159.168H79.7324C78.7324 159.168 77.7324 159.168 76.7324 159.108H75.7324C74.3424 159.048 72.9724 158.938 71.6124 158.808C70.0724 158.648 68.5424 158.448 67.0224 158.208L65.5024 157.948L65.1424 157.878L64.4624 157.758L63.7824 157.618C62.4224 157.348 61.0724 157.028 59.7824 156.678C59.429 156.598 59.0957 156.508 58.7824 156.408L57.3324 155.998L56.3324 155.698C55.8424 155.558 55.3324 155.398 54.8824 155.238L54.1524 154.998C53.5924 154.808 53.0324 154.618 52.4724 154.408C51.6724 154.118 50.8824 153.818 50.1024 153.498C49.3224 153.178 48.5824 152.878 47.8324 152.548C47.0824 152.218 46.2424 151.838 45.4724 151.458C44.7024 151.078 43.9524 150.728 43.2124 150.338C42.4724 149.948 41.7224 149.558 40.9924 149.148L39.4224 148.248C33.218 144.628 27.5301 140.188 22.5124 135.048L23.8824 129.658C24.8943 125.676 26.9757 122.046 29.9015 119.16C32.8273 116.275 36.4861 114.245 40.4824 113.288L42.9924 112.688L44.6824 112.288L50.7824 110.828L51.7824 110.598L52.7824 110.358L53.8824 110.098L54.1324 110.038C55.2796 109.77 56.3932 109.374 57.4524 108.858C59.2407 107.998 60.8545 106.815 62.2124 105.368C64.1498 103.33 65.5276 100.826 66.2124 98.0983L67.2724 93.9683L67.5624 92.8583V92.8083L68.3824 89.6283L68.9124 87.5683L69.3224 85.9983H90.1324L91.0624 89.6283L91.6724 91.9983L91.8124 92.5383L91.8924 92.8383V92.8883L92.1824 94.0083L93.2124 98.0983C93.8178 100.442 94.9305 102.624 96.4718 104.49C98.0132 106.356 99.9455 107.861 102.132 108.898H102.232C103.228 109.359 104.266 109.721 105.332 109.978L106.672 110.298H106.742L107.212 110.408L107.752 110.538L108.202 110.648L108.742 110.778L115.922 112.488L116.502 112.628L118.952 113.208C122.949 114.165 126.607 116.195 129.533 119.08C132.459 121.966 134.54 125.596 135.552 129.578L137.012 135.058Z" fill="#F9D8D0"/>
<path d="M99.105 125.028H60.015V149.208H99.105V125.028Z" fill="#4DD0E1"/>
<path d="M135.435 129.438C134.419 125.457 132.334 121.829 129.407 118.946C126.48 116.063 122.821 114.034 118.825 113.078L105.205 109.828C104.07 109.554 102.968 109.162 101.915 108.658C94.3051 127.658 85.0851 140.168 79.5551 140.168C74.0251 140.168 64.8051 127.688 57.1951 108.658C56.1423 109.162 55.0396 109.554 53.9051 109.828L40.2851 113.078C36.2892 114.034 32.6302 116.063 29.7029 118.946C26.7757 121.829 24.6915 125.457 23.675 129.438L22.3051 134.838C29.7229 142.532 38.6157 148.653 48.4522 152.833C58.2888 157.014 68.8671 159.168 79.5551 159.168C90.243 159.168 100.821 157.014 110.658 152.833C120.494 148.653 129.387 142.532 136.805 134.838L135.435 129.438Z" fill="#0A2044"/>
<path d="M91.8824 92.8083C90.1224 100.538 85.3624 106.088 79.7524 106.088C74.1424 106.088 69.3724 100.508 67.6124 92.8083L68.9624 87.5583L69.3724 85.9883H90.1224L91.6624 91.9883L91.8024 92.5283L91.8824 92.8083Z" fill="#0A2044"/>
<path d="M56.5424 63.3783C46.2124 51.8083 53.1024 80.1183 58.8224 76.8083C68.8624 70.9883 56.5424 63.3783 56.5424 63.3783Z" fill="#F9D8D0"/>
<path d="M102.952 63.3783C113.282 51.7883 106.392 80.1183 100.672 76.8083C90.6324 70.9883 102.952 63.3783 102.952 63.3783Z" fill="#F9D8D0"/>
<path d="M103.782 55.0183C103.781 55.8868 103.735 56.7547 103.642 57.6183C103.582 58.2183 103.372 60.2283 103.002 62.9983C103.002 63.1083 103.002 63.2183 103.002 63.3383C101.922 71.3383 99.5924 85.1483 95.9124 88.8183C93.6961 91.2588 91.2957 93.5254 88.7324 95.5983C86.1511 97.5021 83.0087 98.4908 79.8024 98.4083C72.2124 98.4083 68.9824 94.0983 63.7024 88.8183C61.0624 86.1783 59.1124 78.3283 57.8124 71.1383C57.7524 70.7983 57.6924 70.4483 57.6424 70.1383C57.4624 69.0683 57.2924 68.0083 57.1324 66.9983C56.9324 65.6983 56.7624 64.4583 56.6024 63.3383C56.1324 59.8383 55.9024 57.4283 55.9024 57.4283C55.8224 56.6283 55.7824 55.8183 55.7824 54.9983C55.7824 54.7883 55.7824 54.5783 55.7824 54.3683C55.8282 52.5149 56.0865 50.6728 56.5524 48.8783C56.5524 48.7983 56.6024 48.7183 56.6224 48.6383C57.9497 43.7856 60.7685 39.4727 64.6804 36.3091C68.5922 33.1455 73.3993 31.2912 78.4224 31.0083C78.8824 31.0083 79.3324 31.0083 79.7924 31.0083C82.9441 31.0096 86.0647 31.6317 88.976 32.839C91.8873 34.0463 94.5323 35.8153 96.76 38.0448C98.9877 40.2743 100.754 42.9208 101.959 45.8331C103.164 48.7455 103.784 51.8666 103.782 55.0183Z" fill="#F9D8D0"/>
<path d="M51.1624 109.788L50.7224 109.858V109.818L51.1624 109.788Z" fill="#4DD0E1"/>
<path d="M79.7524 29.6583C79.2924 29.6583 78.8424 29.6583 78.3824 29.6583C73.2781 30.0279 68.4212 32.0015 64.5059 35.2972C60.5906 38.5928 57.8173 43.0418 56.5824 48.0083C56.5824 48.0983 56.5824 48.1783 56.5124 48.2583C56.0524 50.0983 55.4424 51.2583 55.3924 53.2083C55.3924 53.4283 55.0024 54.8083 55.0024 55.0182C55.0024 55.8783 54.9224 56.8382 55.0024 57.6682C55.8307 59.4519 56.3546 61.3616 56.5524 63.3183L58.0524 55.6483C58.3132 54.2618 58.8561 52.9437 59.6474 51.7757C60.4387 50.6077 61.4615 49.6147 62.6524 48.8583C63.7227 48.2318 64.9979 48.0558 66.1979 48.369C67.3979 48.6821 68.4246 49.4587 69.0524 50.5283C70.1606 52.2631 71.6878 53.6909 73.4931 54.6801C75.2985 55.6693 77.3238 56.1879 79.3824 56.1883H80.3824C82.44 56.19 84.4647 55.6721 86.2687 54.6826C88.0728 53.6932 89.5978 52.2642 90.7024 50.5283C91.012 50.0014 91.4225 49.5407 91.9103 49.1725C92.3981 48.8044 92.9537 48.5361 93.5454 48.3828C94.137 48.2296 94.753 48.1945 95.3582 48.2795C95.9634 48.3645 96.5459 48.568 97.0724 48.8783C98.2535 49.6377 99.2678 50.6295 100.053 51.7934C100.839 52.9572 101.38 54.2688 101.642 55.6483L103.002 63.3383C103.323 61.4798 103.771 59.6455 104.342 57.8483C104.432 56.9683 104.632 55.5283 104.632 54.6183C104.57 48.0315 101.931 41.731 97.2812 37.0658C92.6309 32.4006 86.3389 29.7416 79.7524 29.6583Z" fill="#0A2044"/>
<path d="M99.8659 68.5539L98.326 74.9439C96.8445 80.9513 93.9974 86.5361 90.006 91.2639C89.3299 92.0628 88.5215 92.7393 87.6159 93.2639V91.3239C87.6159 89.531 86.9037 87.8116 85.636 86.5439C84.3682 85.2761 82.6488 84.5639 80.856 84.5639H77.296C75.5039 84.5665 73.786 85.2796 72.5188 86.5468C71.2517 87.8139 70.5386 89.5318 70.5359 91.3239V93.2039C69.6783 92.6898 68.9113 92.0377 68.266 91.2739C64.2724 86.5475 61.425 80.9622 59.946 74.9539L58.5359 69.0639L55.826 71.2539L57.6459 78.6439C58.9259 85.0639 60.7159 91.4739 63.0559 93.8139C65.6959 96.4539 67.826 98.8139 70.236 100.584C72.8522 102.419 75.9703 103.404 79.166 103.404C82.3617 103.404 85.4797 102.419 88.0959 100.584C90.5159 98.8539 92.6359 96.4539 95.2759 93.8139C97.6059 91.5039 99.3859 85.1839 100.646 78.8139L102.506 71.2639L99.8659 68.5539ZM75.236 94.4739C74.6651 94.4723 74.0958 94.4154 73.5359 94.3039V91.3039C73.5359 90.3067 73.9321 89.3503 74.6372 88.6452C75.3424 87.94 76.2987 87.5439 77.296 87.5439H80.856C81.8532 87.5439 82.8095 87.94 83.5147 88.6452C84.2198 89.3503 84.6159 90.3067 84.6159 91.3039V94.3039C84.0912 94.3993 83.5593 94.4495 83.0259 94.4539L75.236 94.4739Z" fill="#0A2044"/>
<circle cx="88.7357" cy="67.3206" r="2.89072" fill="#0A2044"/>
<circle cx="71.4041" cy="67.3206" r="2.89072" fill="#0A2044"/>
<path d="M81.2123 79.1365L81.2121 67.4432C81.2121 64.6817 83.4507 62.4431 86.2121 62.4431L92.7359 62.4431M67.212 62.4431L75.7359 62.4431" stroke="#0A2044" stroke-width="2" stroke-linecap="round"/>
<path d="M83.4301 87.5983C83.4301 89.2583 81.7401 90.5983 79.6501 90.5983C77.5601 90.5983 75.8801 89.2583 75.8801 87.5983C75.8772 87.3987 75.9041 87.1999 75.9601 87.0083C76.263 87.7389 76.7757 88.3633 77.4334 88.8026C78.0911 89.2419 78.8642 89.4763 79.6551 89.4763C80.446 89.4763 81.2191 89.2419 81.8768 88.8026C82.5345 88.3633 83.0472 87.7389 83.3501 87.0083C83.4061 87.1999 83.433 87.3987 83.4301 87.5983Z" fill="#0A2044"/>
</svg>
