<svg width="160" height="160" viewBox="0 0 160 160" fill="none" xmlns="http://www.w3.org/2000/svg">
<path d="M159.08 79.8483C159.08 95.5802 154.415 110.959 145.674 124.039C136.934 137.12 124.511 147.315 109.976 153.335C95.4417 159.355 79.4484 160.929 64.0189 157.859C48.5893 154.789 34.4167 147.213 23.2932 136.088C12.1698 124.963 4.59509 110.79 1.52716 95.3596C-1.54078 79.9297 0.0358005 63.9366 6.05753 49.4027C12.0793 34.8689 22.2757 22.4471 35.3573 13.7083C48.4389 4.96957 63.8181 0.306311 79.55 0.308289C90.0045 0.273938 100.363 2.30793 110.028 6.29314C119.693 10.2784 128.474 16.1361 135.866 23.529C143.258 30.922 149.115 39.7041 153.099 49.3698C157.083 59.0355 159.116 69.3938 159.08 79.8483Z" fill="white"/>
<path d="M112.91 81.0382L110.47 51.9282C109.89 45.0926 106.659 38.7551 101.468 34.2703C96.2768 29.7856 89.5372 27.5093 82.6899 27.9282C80.1424 28.0883 77.5874 28.0883 75.0399 27.9282C68.1926 27.5093 61.4531 29.7856 56.2619 34.2703C51.0708 38.7551 47.8399 45.0926 47.2599 51.9282L44.8099 81.0382C44.742 81.7994 44.8331 82.5664 45.0775 83.2904C45.3219 84.0145 45.7143 84.6798 46.2296 85.2441C46.745 85.8083 47.3721 86.2592 48.0711 86.5681C48.7701 86.877 49.5257 87.0371 50.2899 87.0382H107.43C108.195 87.0386 108.951 86.8795 109.651 86.5712C110.35 86.2628 110.978 85.8119 111.494 85.2473C112.009 84.6827 112.402 84.0168 112.646 83.2921C112.889 82.5673 112.979 81.7997 112.91 81.0382Z" fill="#0A2044"/>
<path d="M136.8 135.048C127.482 144.719 115.868 151.874 103.04 155.848C99.8963 156.824 96.693 157.595 93.45 158.158C84.2872 159.772 74.9129 159.772 65.75 158.158C62.5103 157.6 59.3103 156.831 56.17 155.858C43.297 151.898 31.642 144.73 22.3 135.028L23.67 129.628C24.6844 125.646 26.768 122.017 29.6956 119.134C32.6231 116.251 36.2832 114.222 40.28 113.268H40.35L53.89 110.028C54.63 109.854 55.3555 109.624 56.06 109.338C56.27 109.258 56.49 109.168 56.7 109.068C57.0693 108.919 57.4299 108.748 57.78 108.558C59.2624 107.774 60.6122 106.762 61.78 105.558L62.02 105.318C62.9802 104.309 63.81 103.184 64.4901 101.968C65.1802 100.731 65.7079 99.4104 66.06 98.0383L67.12 93.9183L67.4 92.8083V92.7183L68.76 87.4683L69.16 85.8983H89.91L91.45 91.8983L91.6001 92.4383L91.67 92.7383V92.8083L91.9601 93.9283L93.0201 98.0383C93.373 99.4116 93.9042 100.733 94.6001 101.968C96.4778 105.349 99.4877 107.958 103.1 109.338C103.44 109.468 103.79 109.588 104.1 109.698C104.41 109.808 104.78 109.898 105.1 109.978L118.72 113.238C122.709 114.196 126.361 116.225 129.281 119.106C132.202 121.988 134.279 125.612 135.29 129.588L136.8 135.048Z" fill="#FBE4C1"/>
<path d="M91.6801 92.7882C89.9301 100.528 85.1602 106.068 79.5502 106.068C73.9402 106.068 69.1702 100.508 67.4102 92.7682L68.7702 87.5182L69.1702 85.9482H89.9202L91.4702 91.9482L91.6102 92.4882L91.6801 92.7882Z" fill="#0A2044"/>
<path d="M56.3401 63.3783C46.0101 51.7883 52.9101 80.1283 58.6201 76.8083C68.6701 70.9883 56.3401 63.3783 56.3401 63.3783Z" fill="#FBE4C1"/>
<path d="M102.75 63.3783C113.08 51.7883 106.19 80.1283 100.47 76.8083C90.43 70.9883 102.75 63.3783 102.75 63.3783Z" fill="#FBE4C1"/>
<path d="M103.59 55.0182C103.589 55.8867 103.542 56.7546 103.45 57.6182C103.22 59.8982 100.69 83.8282 95.67 88.8582C94.29 90.2382 93.04 91.5582 91.82 92.7482C90.7834 93.7937 89.6667 94.7566 88.48 95.6282C85.9038 97.5354 82.7645 98.5279 79.56 98.4482C76.1465 98.5308 72.8136 97.4045 70.15 95.2682C69.1542 94.4815 68.2027 93.6402 67.3 92.7482C66.09 91.5582 64.84 90.2382 63.46 88.8582C60.81 86.2182 58.86 78.3682 57.57 71.1682L57.39 70.1682C56.23 63.3882 55.65 57.4582 55.65 57.4582C55.58 56.6682 55.53 55.8582 55.53 55.0382C55.53 54.8282 55.53 54.6182 55.53 54.4082C55.5792 52.5544 55.8409 50.7123 56.31 48.9182L56.37 48.6782C57.7003 43.8308 60.5153 39.5218 64.4199 36.3562C68.3244 33.1906 73.1224 31.3274 78.14 31.0282C78.59 31.0282 79.05 31.0282 79.51 31.0282C82.6676 31.0177 85.7963 31.6304 88.7167 32.8311C91.6371 34.0319 94.2918 35.7972 96.5288 38.0258C98.7657 40.2544 100.541 42.9025 101.753 45.8184C102.964 48.7342 103.589 51.8606 103.59 55.0182Z" fill="#FBE4C1"/>
<path d="M105.99 54.2283V57.7583L91.35 59.5983C89.89 59.7783 88.43 59.9283 86.96 60.0383L85.47 51.5983L83.95 60.1583C81.05 60.2917 78.15 60.2917 75.25 60.1583L73.73 51.5983L72.24 59.9783C70.71 59.8583 69.18 59.7083 67.65 59.5183L53.21 57.7183V54.1883C53.2206 47.8751 55.7359 41.8242 60.2037 37.3638C64.6716 32.9035 70.7268 30.3983 77.04 30.3983H82.14C85.271 30.3957 88.372 31.0101 91.2654 32.2065C94.1589 33.4029 96.7883 35.1578 99.0032 37.3709C101.218 39.584 102.975 42.2119 104.174 45.1044C105.373 47.9968 105.99 51.0972 105.99 54.2283Z" fill="#0A2044"/>
<path d="M136.8 135.058C129.382 142.752 120.488 148.871 110.652 153.051C100.816 157.23 90.2376 159.385 79.55 159.385C68.8625 159.385 58.2845 157.23 48.4481 153.051C38.6117 148.871 29.7186 142.752 22.3 135.058L23.67 129.668C24.6838 125.685 26.7671 122.055 29.6946 119.169C32.622 116.284 36.2824 114.254 40.28 113.298L53.9 110.048C55.112 109.762 56.2866 109.336 57.4 108.778C60.2404 111.806 63.6714 114.22 67.4811 115.87C71.2909 117.519 75.3984 118.371 79.55 118.371C83.7017 118.371 87.8092 117.519 91.619 115.87C95.4287 114.22 98.8597 111.806 101.7 108.778C102.814 109.336 103.988 109.762 105.2 110.048L118.82 113.298C122.817 114.253 126.477 116.282 129.403 119.168C132.329 122.054 134.41 125.685 135.42 129.668L136.8 135.058Z" fill="#0A2044"/>
<path d="M65.75 158.178C62.5103 157.62 59.3103 156.851 56.17 155.878C43.297 151.918 31.642 144.75 22.3 135.048L23.67 129.648C24.6844 125.666 26.768 122.037 29.6956 119.154C32.6231 116.271 36.2832 114.242 40.28 113.288H40.35L53.89 110.048C54.63 109.874 55.3555 109.644 56.06 109.358L65.75 158.178Z" fill="#4DD0E1"/>
<path d="M65.75 158.178C62.5103 157.62 59.3103 156.851 56.17 155.878C43.297 151.918 31.642 144.75 22.3 135.048L23.67 129.648C24.6844 125.666 26.768 122.037 29.6956 119.154C32.6231 116.271 36.2832 114.242 40.28 113.288H40.35L53.89 110.048C54.63 109.874 55.3555 109.644 56.06 109.358L65.75 158.178Z" fill="#4DD0E1"/>
<path d="M56.7801 136.968C57.835 136.968 58.6901 136.113 58.6901 135.058C58.6901 134.003 57.835 133.148 56.7801 133.148C55.7252 133.148 54.8701 134.003 54.8701 135.058C54.8701 136.113 55.7252 136.968 56.7801 136.968Z" fill="#0A2044"/>
<path d="M61.04 147.748C61.04 148.126 60.928 148.495 60.7181 148.809C60.5082 149.123 60.2099 149.368 59.8609 149.513C59.5119 149.657 59.1279 149.695 58.7574 149.622C58.3868 149.548 58.0465 149.366 57.7794 149.099C57.5123 148.832 57.3304 148.491 57.2567 148.121C57.183 147.75 57.2208 147.366 57.3654 147.017C57.5099 146.668 57.7547 146.37 58.0688 146.16C58.3829 145.95 58.7522 145.838 59.13 145.838C59.6365 145.838 60.1224 146.039 60.4805 146.398C60.8387 146.756 61.04 147.242 61.04 147.748Z" fill="#0A2044"/>
<path d="M136.8 135.048C127.482 144.719 115.868 151.874 103.04 155.848C99.8963 156.824 96.6929 157.595 93.45 158.158L103.14 109.388C103.48 109.518 103.83 109.638 104.14 109.748C104.45 109.858 104.82 109.948 105.14 110.028L118.76 113.288C122.749 114.246 126.401 116.275 129.321 119.156C132.242 122.038 134.319 125.662 135.33 129.638L136.8 135.048Z" fill="#4DD0E1"/>
<path opacity="0.3" d="M136.8 135.048C127.482 144.719 115.868 151.874 103.04 155.848C99.8963 156.824 96.6929 157.595 93.45 158.158L103.14 109.388C103.48 109.518 103.83 109.638 104.14 109.748C104.45 109.858 104.82 109.948 105.14 110.028L118.76 113.288C122.749 114.246 126.401 116.275 129.321 119.156C132.242 122.038 134.319 125.662 135.33 129.638L136.8 135.048Z" fill="#4DD0E1"/>
<path d="M100.52 135.058C100.518 135.436 100.628 135.807 100.837 136.122C101.046 136.437 101.343 136.684 101.692 136.83C102.041 136.976 102.425 137.015 102.796 136.943C103.168 136.87 103.509 136.689 103.777 136.422C104.045 136.156 104.228 135.815 104.303 135.445C104.377 135.074 104.34 134.689 104.196 134.34C104.051 133.99 103.807 133.691 103.492 133.481C103.178 133.271 102.808 133.158 102.43 133.158C102.18 133.157 101.932 133.205 101.7 133.3C101.468 133.395 101.258 133.535 101.08 133.711C100.903 133.888 100.762 134.098 100.666 134.329C100.57 134.56 100.52 134.808 100.52 135.058Z" fill="#0A2044"/>
<path d="M98.1401 147.748C98.1401 148.126 98.2522 148.495 98.462 148.809C98.6719 149.123 98.9702 149.368 99.3192 149.513C99.6682 149.657 100.052 149.695 100.423 149.622C100.793 149.548 101.134 149.366 101.401 149.099C101.668 148.832 101.85 148.491 101.923 148.121C101.997 147.75 101.959 147.366 101.815 147.017C101.67 146.668 101.425 146.37 101.111 146.16C100.797 145.95 100.428 145.838 100.05 145.838C99.5444 145.841 99.0601 146.043 98.7025 146.401C98.3448 146.758 98.1428 147.242 98.1401 147.748Z" fill="#0A2044"/>
<ellipse cx="89.3829" cy="67.8336" rx="6" ry="1" fill="#0A2044"/>
<ellipse cx="68.0514" cy="67.8336" rx="6" ry="1" fill="#0A2044"/>
<path d="M79.7502 80.5402L79.7501 68.8469C79.75 66.0854 81.9886 63.8468 84.7501 63.8468L91.2739 63.8469M65.75 63.8468L74.2739 63.8469" stroke="#0A2044" stroke-width="2" stroke-linecap="round"/>
<path d="M83.4301 83.5983C83.4301 85.2583 81.7401 86.5983 79.6501 86.5983C77.5601 86.5983 75.8801 85.2583 75.8801 83.5983C75.8772 83.3987 75.9041 83.1999 75.9601 83.0083C76.263 83.7389 76.7757 84.3633 77.4334 84.8026C78.0911 85.2419 78.8642 85.4763 79.6551 85.4763C80.446 85.4763 81.2191 85.2419 81.8768 84.8026C82.5345 84.3633 83.0472 83.7389 83.3501 83.0083C83.4061 83.1999 83.433 83.3987 83.4301 83.5983Z" fill="#0A2044"/>
</svg>
