<svg width="160" height="160" viewBox="0 0 160 160" fill="none" xmlns="http://www.w3.org/2000/svg">
<path d="M159.523 79.8281C159.525 95.56 154.861 110.939 146.123 124.021C137.384 137.102 124.962 147.299 110.428 153.321C95.8944 159.342 79.9013 160.919 64.4714 157.851C49.0415 154.783 34.8679 147.208 23.743 136.085C12.6181 124.961 5.04167 110.789 1.97179 95.3592C-1.09809 79.9297 0.47649 63.9364 6.49639 49.4017C12.5163 34.8671 22.7111 22.4441 35.7916 13.7037C48.8721 4.96326 64.2508 0.298079 79.9827 0.298079C90.438 0.259754 100.797 2.29062 110.464 6.27368C120.131 10.2567 128.914 16.1133 136.308 23.5058C143.701 30.8984 149.559 39.6808 153.543 49.3472C157.528 59.0136 159.56 69.3728 159.523 79.8281Z" fill="white"/>
<path d="M80.4927 23.5881C88.305 23.5871 95.851 26.4273 101.724 31.5789C107.597 36.7306 111.396 43.8423 112.413 51.5881L114.203 65.3581C114.634 68.6639 114.354 72.0236 113.384 75.2129C112.413 78.4023 110.773 81.3478 108.574 83.8531C106.374 86.3583 103.666 88.3655 100.629 89.7408C97.5918 91.116 94.2965 91.8276 90.9627 91.8281H79.0827L80.4927 23.5881Z" fill="#0A2044"/>
<path d="M78.6827 23.5881C70.8705 23.5871 63.3245 26.4273 57.4516 31.5789C51.5786 36.7306 47.7796 43.8423 46.7627 51.5881L44.9727 65.3581C44.5418 68.6639 44.821 72.0236 45.7916 75.2129C46.7623 78.4023 48.4021 81.3478 50.6017 83.8531C52.8012 86.3583 55.5098 88.3655 58.5467 89.7408C61.5836 91.116 64.879 91.8276 68.2127 91.8281H80.0927L78.6827 23.5881Z" fill="#0A2044"/>
<path d="M137.273 135.068C129.855 142.763 120.962 148.883 111.126 153.064C101.289 157.244 90.7107 159.399 80.0227 159.399C69.3347 159.399 58.7564 157.244 48.9199 153.064C39.0834 148.883 30.1905 142.763 22.7727 135.068L24.1427 129.668C25.1591 125.687 27.2434 122.059 30.1706 119.176C33.0978 116.293 36.7568 114.264 40.7527 113.308L54.3727 110.058C55.5073 109.784 56.61 109.392 57.6627 108.888L57.8127 108.808C59.5607 107.955 61.1422 106.797 62.4827 105.388C64.4132 103.341 65.7899 100.835 66.4827 98.1081L67.5427 93.9881L67.8227 92.8781V92.7881L69.1827 87.5381L69.5827 85.9681H90.3327L91.8827 91.9681L92.0227 92.5081L92.1027 92.8081V92.8781L92.3927 93.9981L93.4527 98.1081C94.1947 101.024 95.7183 103.683 97.8593 105.797C100 107.912 102.677 109.402 105.603 110.108L119.273 113.308C123.269 114.264 126.928 116.293 129.855 119.176C132.782 122.059 134.866 125.687 135.883 129.668L137.273 135.068Z" fill="#F9D8D0"/>
<path d="M137.273 135.068C129.855 142.763 120.962 148.883 111.126 153.064C101.289 157.244 90.7107 159.399 80.0227 159.399C69.3347 159.399 58.7564 157.244 48.9199 153.064C39.0834 148.883 30.1905 142.763 22.7727 135.068L24.1427 129.668C25.1591 125.687 27.2434 122.059 30.1706 119.176C33.0978 116.293 36.7568 114.264 40.7527 113.308L54.3727 110.058C55.5073 109.784 56.61 109.392 57.6627 108.888L69.7327 128.888C70.8125 130.681 72.3375 132.165 74.1598 133.194C75.982 134.224 78.0396 134.766 80.1327 134.766C82.2258 134.766 84.2834 134.224 86.1057 133.194C87.9279 132.165 89.453 130.681 90.5327 128.888L102.533 108.938C103.534 109.404 104.579 109.769 105.653 110.028L119.273 113.308C123.269 114.264 126.928 116.293 129.855 119.176C132.782 122.059 134.866 125.687 135.883 129.668L137.273 135.068Z" fill="#4DD0E1"/>
<path d="M92.1227 92.8281C90.3627 100.558 85.6027 106.108 79.9927 106.108C74.3827 106.108 69.6127 100.548 67.8527 92.8081L69.2027 87.5581L69.6127 85.9881H90.3627L91.9027 91.9881L92.0427 92.5281L92.1227 92.8281Z" fill="#0A2044"/>
<path d="M53.8927 63.3981C43.5627 51.7981 50.4527 80.1381 56.1627 76.8281C66.2127 71.0081 53.8927 63.3981 53.8927 63.3981Z" fill="#F9D8D0"/>
<path d="M106.093 63.3981C116.423 51.7981 109.533 80.1381 103.813 76.8281C93.7727 71.0081 106.093 63.3981 106.093 63.3981Z" fill="#F9D8D0"/>
<path d="M107.273 54.6381C107.275 57.2486 106.986 59.8513 106.413 62.3981C103.413 75.8081 92.7227 85.7081 80.0127 85.7081C64.9527 85.7081 52.7427 71.7981 52.7427 54.6281C52.684 50.2276 53.5086 45.8601 55.1679 41.7841C56.8272 37.7081 59.2873 34.0064 62.4027 30.8981C67.0849 26.2371 73.4063 23.5951 80.0127 23.5381C95.0527 23.5481 107.273 37.4681 107.273 54.6381Z" fill="#0A2044"/>
<path d="M104.033 55.048C104.033 55.9169 103.983 56.785 103.883 57.6481C103.823 58.2381 103.613 60.308 103.233 63.138C102.173 71.138 99.8227 85.138 96.1027 88.888C93.4727 91.528 91.3427 93.888 88.9227 95.658C86.3054 97.4905 83.1877 98.4734 79.9927 98.4734C76.7977 98.4734 73.68 97.4905 71.0627 95.658C68.5018 93.5824 66.1016 91.3159 63.8827 88.878C61.5027 86.498 59.6827 79.8781 58.4027 73.3081C58.2727 72.5981 58.1327 71.898 58.0127 71.198L57.8327 70.198C57.3927 67.638 57.0327 65.198 56.7627 63.198C56.3127 59.828 56.0927 57.5281 56.0927 57.5281C56.0227 56.7381 55.9727 55.928 55.9727 55.108C55.9727 54.898 55.9727 54.688 55.9727 54.478C56.0219 52.6242 56.2836 50.7822 56.7527 48.9881L56.8127 48.748C58.1528 43.9005 60.9765 39.5939 64.8878 36.4322C68.7991 33.2705 73.6019 31.4122 78.6227 31.118C79.0727 31.118 79.5227 31.118 79.9827 31.118C86.3479 31.118 92.4524 33.6466 96.9533 38.1475C101.454 42.6484 103.983 48.7529 103.983 55.1181L104.033 55.048Z" fill="#F9D8D0"/>
<path d="M64.4927 35.828C60.3491 39.1108 57.3609 43.6299 55.9627 48.728C55.944 48.8093 55.9206 48.8894 55.8927 48.968C55.412 50.8318 55.1437 52.7439 55.0927 54.668C55.0927 54.878 55.0927 55.098 55.0927 55.318C55.0927 56.168 55.1427 57.008 55.2127 57.828C55.2127 57.828 55.4427 60.208 55.9027 63.698C57.6627 63.528 76.4827 61.288 79.9927 45.838V30.428C79.5127 30.428 79.0427 30.428 78.5827 30.428C73.4375 30.7129 68.5104 32.6012 64.4927 35.828Z" fill="#0A2044"/>
<path d="M97.6127 37.718C95.2994 35.404 92.5523 33.5689 89.5288 32.318C86.5053 31.0671 83.2648 30.4248 79.9927 30.4281V45.828C83.5027 61.298 102.363 63.518 104.083 63.688C104.473 60.758 104.693 58.6181 104.753 57.9981C104.861 57.1055 104.915 56.2072 104.913 55.3081C104.915 52.0398 104.27 48.8033 103.018 45.7847C101.765 42.7661 99.9281 40.0247 97.6127 37.718Z" fill="#0A2044"/>
<path d="M57.6227 108.888V126.728C57.6227 128.391 58.2833 129.986 59.4592 131.162C60.635 132.337 62.2298 132.998 63.8927 132.998H73.7027L57.6227 108.888Z" fill="#0A2044"/>
<path d="M102.513 108.958V126.828C102.513 128.491 101.852 130.086 100.676 131.262C99.5004 132.437 97.9056 133.098 96.2427 133.098H86.4327L102.513 108.958Z" fill="#0A2044"/>
<path d="M68.7828 150.988C67.6025 150.992 66.4486 150.639 65.4733 149.974C64.498 149.309 63.7471 148.364 63.3194 147.264C62.8917 146.164 62.8074 144.96 63.0775 143.811C63.3477 142.662 63.9596 141.622 64.8327 140.828C67.0927 138.758 76.3228 137.348 76.7128 137.288L77.4527 137.178L77.2727 137.898C77.1827 138.278 74.9828 147.358 72.7228 149.428C71.6532 150.426 70.2458 150.984 68.7828 150.988ZM76.1228 138.418C73.1228 138.918 67.0528 140.168 65.5028 141.588C64.6037 142.467 64.0818 143.661 64.0475 144.917C64.0131 146.174 64.4691 147.395 65.3189 148.321C66.1686 149.248 67.3455 149.807 68.6004 149.881C69.8554 149.955 71.0899 149.538 72.0427 148.718C73.5927 147.298 75.3628 141.358 76.1228 138.418Z" fill="#0A2044"/>
<path d="M91.5327 150.988C90.0724 150.989 88.6654 150.439 87.5927 149.448C85.3327 147.378 83.1327 138.298 83.0427 137.918L82.8627 137.198L83.6027 137.308C83.9927 137.368 93.2227 138.778 95.4827 140.848C96.3485 141.644 96.954 142.682 97.2198 143.828C97.4857 144.973 97.3996 146.172 96.9728 147.268C96.546 148.364 95.7983 149.305 94.8277 149.969C93.857 150.632 92.7086 150.988 91.5327 150.988ZM84.1927 138.418C84.9527 141.358 86.7227 147.298 88.2727 148.718C89.2256 149.538 90.4601 149.955 91.7151 149.881C92.97 149.807 94.1469 149.248 94.9966 148.321C95.8464 147.395 96.3024 146.174 96.268 144.917C96.2337 143.661 95.7118 142.467 94.8127 141.588C93.2727 140.168 87.1927 138.918 84.1927 138.418Z" fill="#0A2044"/>
<path d="M74.8227 156.948L74.1127 156.238L75.1727 155.178C76.1224 154.241 76.8766 153.125 77.3916 151.894C77.9066 150.663 78.1721 149.342 78.1727 148.008V137.148H79.1727V148.008C79.1799 149.473 78.8943 150.925 78.3328 152.278C77.7713 153.631 76.9451 154.859 75.9027 155.888L74.8227 156.948Z" fill="#0A2044"/>
<path d="M85.4927 156.948L84.4428 155.888C83.4004 154.859 82.5742 153.631 82.0127 152.278C81.4511 150.925 81.1656 149.473 81.1727 148.008V137.148H82.1727V148.008C82.1734 149.342 82.4389 150.663 82.9539 151.894C83.4689 153.125 84.2231 154.241 85.1727 155.178L86.2327 156.238L85.4927 156.948Z" fill="#0A2044"/>
<circle cx="88.7357" cy="67.3206" r="2.89072" fill="#0A2044"/>
<circle cx="71.4041" cy="67.3206" r="2.89072" fill="#0A2044"/>
<path d="M81.2123 79.1365L81.2121 67.4432C81.2121 64.6817 83.4507 62.4431 86.2121 62.4431L92.7359 62.4431M67.212 62.4431L75.7359 62.4431" stroke="#0A2044" stroke-width="2" stroke-linecap="round"/>
<path d="M83.4301 83.5983C83.4301 85.2583 81.7401 86.5983 79.6501 86.5983C77.5601 86.5983 75.8801 85.2583 75.8801 83.5983C75.8772 83.3987 75.9041 83.1999 75.9601 83.0083C76.263 83.7389 76.7757 84.3633 77.4334 84.8026C78.0911 85.2419 78.8642 85.4763 79.6551 85.4763C80.446 85.4763 81.2191 85.2419 81.8768 84.8026C82.5345 84.3633 83.0472 83.7389 83.3501 83.0083C83.4061 83.1999 83.433 83.3987 83.4301 83.5983Z" fill="#0A2044"/>
</svg>
