<svg width="160" height="160" viewBox="0 0 160 160" fill="none" xmlns="http://www.w3.org/2000/svg">
<path d="M159.32 79.8292C159.322 95.5629 154.658 110.944 145.918 124.026C137.177 137.109 124.753 147.305 110.217 153.326C95.6805 159.346 79.6853 160.92 64.2543 157.849C48.8233 154.778 34.6498 147.199 23.5265 136.072C12.4032 124.944 4.82995 110.768 1.76459 95.3358C-1.30077 79.9037 0.279508 63.9091 6.30554 49.3751C12.3316 34.8412 22.5326 22.4209 35.6184 13.6853C48.7042 4.94975 64.0868 0.291281 79.8204 0.299193C90.2719 0.267485 100.626 2.30316 110.288 6.28906C119.95 10.275 128.728 16.1324 136.117 23.5241C143.506 30.9159 149.36 39.696 153.342 49.3592C157.324 59.0224 159.356 69.3777 159.32 79.8292Z" fill="white"/>
<path d="M91.9603 92.7792C90.2003 100.509 85.4303 106.049 79.8303 106.049C74.2303 106.049 69.4403 100.499 67.6903 92.7592L69.0403 87.5092L69.4503 85.9392H90.1903L91.7403 91.9392L91.8803 92.4792L91.9603 92.7792Z" fill="#4DD0E1"/>
<path d="M125.497 71.8436C125.541 72.393 125.477 72.9458 125.307 73.4701C124.547 75.6783 121.638 77.0317 120.558 79.0975C119.477 81.1632 119.976 84.2143 118.551 86.0783C117.127 87.9422 113.909 88.3933 112.188 90.0436C110.467 91.6938 110.003 94.733 108.045 96.0865C106.086 97.4399 102.88 96.9294 100.708 97.986C98.535 99.0426 97.146 101.809 94.7716 102.521C92.3971 103.233 89.619 101.809 87.1852 102.165C85.167 102.474 83.2318 104.112 81.178 104.539C80.8179 104.637 80.4469 104.689 80.0739 104.694C77.6045 104.694 75.325 102.474 72.9506 102.118C70.5762 101.761 67.6556 103.198 65.3643 102.474C63.073 101.749 61.6009 98.9951 59.4283 97.9385C57.2557 96.8819 54.062 97.4043 52.1031 96.039C50.1442 94.6737 49.6931 91.6819 47.9716 90.0198C46.2502 88.3577 43.0566 87.9184 41.6082 86.0545C40.1598 84.1906 40.7297 81.1513 39.6137 79.0737C38.4977 76.9961 35.6128 75.6545 34.8648 73.4463C34.1169 71.2381 35.6247 68.5313 35.2329 66.2043C34.8411 63.8774 32.5616 61.8116 32.5616 59.4491C32.5616 57.0865 34.8648 54.9377 35.2329 52.682C35.6009 50.4263 34.1288 47.6482 34.8648 45.4519C35.6009 43.2555 38.5333 41.8902 39.6137 39.8126C40.6941 37.735 40.1954 34.7076 41.6082 32.8437C43.021 30.9797 46.262 30.4692 47.9716 28.8903C49.6812 27.3113 50.168 24.1414 52.1388 22.8355C54.1095 21.5295 57.2913 21.9807 59.4639 20.9241C61.6365 19.8674 63.0255 17.1131 65.3999 16.3889C67.7744 15.6647 70.5524 17.1131 72.9862 16.7569C75.42 16.4008 77.6163 14.1926 80.1095 14.1926C82.6026 14.1926 84.8583 16.4008 87.2327 16.7569C89.6072 17.1131 92.5396 15.6885 94.819 16.3889C97.0985 17.0894 98.5825 19.8793 100.755 20.9241C102.928 21.9688 106.121 21.4702 108.092 22.8355C110.063 24.2008 110.526 27.2519 112.235 28.8903C113.945 30.5286 117.162 30.9679 118.599 32.8437C120.035 34.7195 119.489 37.7469 120.605 39.8126C121.721 41.8784 124.606 43.2318 125.354 45.4519C126.102 47.672 124.594 50.3669 124.974 52.682C125.354 54.9971 127.669 57.0865 127.669 59.4491C127.669 61.8116 125.354 63.9605 124.974 66.2043C124.642 68.0089 125.449 70.0153 125.497 71.8436Z" fill="#0A2044"/>
<path d="M101.93 63.3592C112.26 51.7692 105.37 80.1092 99.6503 76.7992C89.6103 70.9692 101.93 63.3592 101.93 63.3592Z" fill="#DC8579"/>
<path d="M137.07 135.039C131.68 140.62 125.51 145.39 118.75 149.199C108.002 155.253 95.9835 158.702 83.6604 159.269C82.3904 159.339 81.1104 159.369 79.8204 159.369C73.5526 159.373 67.3063 158.637 61.2104 157.179C60.3504 156.969 59.4904 156.759 58.6404 156.509C51.3709 154.514 44.4264 151.483 38.0204 147.509C32.3716 144.012 27.1815 139.823 22.5704 135.039L23.9404 129.639C24.9568 125.658 27.0411 122.03 29.9683 119.147C32.8955 116.264 36.5545 114.235 40.5504 113.279L41.4504 113.069L51.4504 110.679L54.1804 110.029C55.315 109.755 56.4177 109.363 57.4704 108.859C57.8704 108.669 58.2704 108.449 58.6504 108.229C59.0304 108.009 59.5304 107.689 59.9504 107.389C60.7923 106.799 61.5759 106.129 62.2904 105.389C64.221 103.342 65.5977 100.836 66.2904 98.1092L67.3504 93.9892L67.6304 92.8792V92.7892L68.9904 87.5392L69.3904 85.9692H90.1404L91.6904 91.9692L91.8304 92.5092L91.9104 92.8092V92.8792L92.2004 93.9992L93.3204 98.0792C94.2908 101.837 96.553 105.133 99.7104 107.389C100.456 107.933 101.249 108.408 102.08 108.809C103.16 109.344 104.297 109.754 105.47 110.029L107.99 110.629L119.09 113.279C123.086 114.235 126.745 116.264 129.673 119.147C132.6 122.03 134.684 125.658 135.7 129.639L137.07 135.039Z" fill="#DC8579"/>
<path d="M91.9603 92.7792C90.2003 100.509 85.4303 106.049 79.8303 106.049C74.2303 106.049 69.4403 100.499 67.6903 92.7592L69.0403 87.5092L69.4503 85.9392H90.1903L91.7403 91.9392L91.8803 92.4792L91.9603 92.7792Z" fill="#4DD0E1"/>
<path d="M57.7205 63.3592C47.3905 51.7792 54.3205 80.1092 60.0005 76.7792C70.0505 70.9692 57.7205 63.3592 57.7205 63.3592Z" fill="#DC8579"/>
<path d="M103.86 55.0092C103.861 55.878 103.811 56.7461 103.71 57.6092C103.71 58.0392 103.54 59.2692 103.33 60.9992C103.16 62.3792 102.94 64.0792 102.66 65.9992C102.32 68.3492 101.88 70.9992 101.36 73.6192C101.36 73.6192 101.36 73.6892 101.36 73.7192C100.09 80.1492 98.3005 86.5492 95.9605 88.8792C93.3205 91.5192 91.2004 93.8791 88.7804 95.6491C86.1642 97.4844 83.0461 98.469 79.8504 98.469C76.6547 98.469 73.5366 97.4844 70.9204 95.6491C68.5104 93.9191 66.3805 91.5192 63.7405 88.8792C61.4005 86.5392 59.6105 80.1292 58.3305 73.7091C58.1705 72.8791 58.0204 72.0492 57.8704 71.2292L57.6904 70.2292C57.4404 68.7892 57.2205 67.3792 57.0205 66.0592C56.3005 61.1892 55.9504 57.5192 55.9504 57.5192C55.8698 56.715 55.8298 55.9073 55.8305 55.0992C55.8305 54.8892 55.8305 54.6792 55.8305 54.4692C55.8746 52.6149 56.1364 50.7723 56.6105 48.9792L56.6704 48.7392C57.9978 43.8864 60.8166 39.5735 64.7284 36.4099C68.6403 33.2463 73.4474 31.3921 78.4704 31.1092C78.9304 31.1092 79.3804 31.1092 79.8504 31.1092C85.7647 31.1004 91.4739 33.2756 95.8828 37.2177C100.292 41.1597 103.09 46.5908 103.74 52.4692C103.826 53.3131 103.866 54.1609 103.86 55.0092Z" fill="#DC8579"/>
<path d="M106.744 44.3542V59.5242L102.534 63.8142L95.597 51.2789C94.5402 49.3694 92.5298 48.1842 90.3473 48.1842H68.5792C66.3925 48.1842 64.379 49.3739 63.3239 51.2892L56.4243 63.8142L52.2143 59.5242V44.3542C52.2104 42.5872 52.4288 40.8268 52.8643 39.1143L55.3143 37.5843L73.7643 29.9543L79.4843 27.5942L85.1943 29.9543L103.644 37.5843L106.094 39.1143C106.53 40.8268 106.748 42.5872 106.744 44.3542Z" fill="#0A2044"/>
<path d="M83.6004 76.6192C83.6004 78.2792 81.9104 79.6192 79.8204 79.6192C77.7304 79.6192 76.0504 78.2792 76.0504 76.6192C76.0461 76.4228 76.0731 76.227 76.1304 76.0392C76.4333 76.7698 76.946 77.3942 77.6037 77.8335C78.2613 78.2728 79.0345 78.5072 79.8254 78.5072C80.6163 78.5072 81.3894 78.2728 82.0471 77.8335C82.7048 77.3942 83.2175 76.7698 83.5204 76.0392C83.5777 76.227 83.6046 76.4228 83.6004 76.6192Z" fill="#4DD0E1"/>
<path d="M137.06 135.049C129.646 142.749 120.754 148.874 110.917 153.057C101.08 157.241 90.5 159.397 79.8104 159.397C69.1208 159.397 58.5411 157.241 48.7042 153.057C38.8672 148.874 29.9753 142.749 22.5604 135.049L23.9304 129.659C24.9442 125.676 27.0275 122.045 29.955 119.16C32.8824 116.275 36.5428 114.245 40.5404 113.289L42.6304 112.789L51.4504 110.689L53.6104 110.169L54.1604 110.039C55.3719 109.751 56.5463 109.325 57.6604 108.769C60.5008 111.797 63.9318 114.211 67.7415 115.86C71.5512 117.51 75.6588 118.361 79.8104 118.361C83.9621 118.361 88.0696 117.51 91.8793 115.86C95.6891 114.211 99.1201 111.797 101.96 108.769C103.076 109.322 104.25 109.748 105.46 110.039L105.9 110.149L107.83 110.609L116.88 112.769L119.08 113.289C123.078 114.243 126.738 116.273 129.664 119.159C132.59 122.044 134.67 125.676 135.68 129.659L137.06 135.049Z" fill="#4DD0E1"/>
<path d="M58.6404 108.229V156.509C51.3709 154.514 44.4264 151.483 38.0204 147.509C32.3716 144.012 27.1815 139.823 22.5704 135.039L23.9404 129.639C24.9568 125.658 27.0411 122.03 29.9683 119.147C32.8955 116.264 36.5545 114.235 40.5504 113.279L41.4504 113.069L51.4504 110.679L54.1804 110.029C55.315 109.755 56.4177 109.363 57.4704 108.859C57.8604 108.669 58.2604 108.449 58.6404 108.229Z" fill="#0A2044"/>
<path d="M137.07 135.039C131.68 140.62 125.51 145.39 118.75 149.199C113.479 152.162 107.886 154.51 102.08 156.199V108.779C103.16 109.314 104.297 109.724 105.47 109.999L107.99 110.599L119.09 113.249C123.086 114.205 126.745 116.234 129.673 119.117C132.6 122 134.684 125.628 135.7 129.609L137.07 135.039Z" fill="#0A2044"/>
<path d="M91.9603 92.7792C90.2003 100.509 85.4303 106.049 79.8303 106.049C74.2303 106.049 69.4403 100.499 67.6903 92.7592L69.0403 87.5092L69.4503 85.9392H90.1903L91.7403 91.9392L91.8803 92.4792L91.9603 92.7792Z" fill="#4DD0E1"/>
<path d="M125.497 71.8436C125.541 72.393 125.477 72.9458 125.307 73.4701C124.547 75.6783 121.638 77.0317 120.558 79.0975C119.477 81.1632 119.976 84.2143 118.551 86.0783C117.127 87.9422 113.909 88.3933 112.188 90.0436C110.467 91.6938 110.003 94.733 108.045 96.0865C106.086 97.4399 102.88 96.9294 100.708 97.986C98.535 99.0426 97.146 101.809 94.7716 102.521C92.3971 103.233 89.619 101.809 87.1852 102.165C85.167 102.474 83.2318 104.112 81.178 104.539C80.8179 104.637 80.4469 104.689 80.0739 104.694C77.6045 104.694 75.325 102.474 72.9506 102.118C70.5762 101.761 67.6556 103.198 65.3643 102.474C63.073 101.749 61.6009 98.9951 59.4283 97.9385C57.2557 96.8819 54.062 97.4043 52.1031 96.039C50.1442 94.6737 49.6931 91.6819 47.9716 90.0198C46.2502 88.3577 43.0566 87.9184 41.6082 86.0545C40.1598 84.1906 40.7297 81.1513 39.6137 79.0737C38.4977 76.9961 35.6128 75.6545 34.8648 73.4463C34.1169 71.2381 35.6247 68.5313 35.2329 66.2043C34.8411 63.8774 32.5616 61.8116 32.5616 59.4491C32.5616 57.0865 34.8648 54.9377 35.2329 52.682C35.6009 50.4263 34.1288 47.6482 34.8648 45.4519C35.6009 43.2555 38.5333 41.8902 39.6137 39.8126C40.6941 37.735 40.1954 34.7076 41.6082 32.8437C43.021 30.9797 46.262 30.4692 47.9716 28.8903C49.6812 27.3113 50.168 24.1414 52.1388 22.8355C54.1095 21.5295 57.2913 21.9807 59.4639 20.9241C61.6365 19.8674 63.0255 17.1131 65.3999 16.3889C67.7744 15.6647 70.5524 17.1131 72.9862 16.7569C75.42 16.4008 77.6163 14.1926 80.1095 14.1926C82.6026 14.1926 84.8583 16.4008 87.2327 16.7569C89.6072 17.1131 92.5396 15.6885 94.819 16.3889C97.0985 17.0894 98.5825 19.8793 100.755 20.9241C102.928 21.9688 106.121 21.4702 108.092 22.8355C110.063 24.2008 110.526 27.2519 112.235 28.8903C113.945 30.5286 117.162 30.9679 118.599 32.8437C120.035 34.7195 119.489 37.7469 120.605 39.8126C121.721 41.8784 124.606 43.2318 125.354 45.4519C126.102 47.672 124.594 50.3669 124.974 52.682C125.354 54.9971 127.669 57.0865 127.669 59.4491C127.669 61.8116 125.354 63.9605 124.974 66.2043C124.642 68.0089 125.449 70.0153 125.497 71.8436Z" fill="#0A2044"/>
<path d="M101.93 63.3592C112.26 51.7692 105.37 80.1092 99.6503 76.7992C89.6103 70.9692 101.93 63.3592 101.93 63.3592Z" fill="#DC8579"/>
<path d="M137.07 135.039C131.68 140.62 125.51 145.39 118.75 149.199C108.002 155.253 95.9835 158.702 83.6604 159.269C82.3904 159.339 81.1104 159.369 79.8204 159.369C73.5526 159.373 67.3063 158.637 61.2104 157.179C60.3504 156.969 59.4904 156.759 58.6404 156.509C51.3709 154.514 44.4264 151.483 38.0204 147.509C32.3716 144.012 27.1815 139.823 22.5704 135.039L23.9404 129.639C24.9568 125.658 27.0411 122.03 29.9683 119.147C32.8955 116.264 36.5545 114.235 40.5504 113.279L41.4504 113.069L51.4504 110.679L54.1804 110.029C55.315 109.755 56.4177 109.363 57.4704 108.859C57.8704 108.669 58.2704 108.449 58.6504 108.229C59.0304 108.009 59.5304 107.689 59.9504 107.389C60.7923 106.799 61.5759 106.129 62.2904 105.389C64.221 103.342 65.5977 100.836 66.2904 98.1092L67.3504 93.9892L67.6304 92.8792V92.7892L68.9904 87.5392L69.3904 85.9692H90.1404L91.6904 91.9692L91.8304 92.5092L91.9104 92.8092V92.8792L92.2004 93.9992L93.3204 98.0792C94.2908 101.837 96.553 105.133 99.7104 107.389C100.456 107.933 101.249 108.408 102.08 108.809C103.16 109.344 104.297 109.754 105.47 110.029L107.99 110.629L119.09 113.279C123.086 114.235 126.745 116.264 129.673 119.147C132.6 122.03 134.684 125.658 135.7 129.639L137.07 135.039Z" fill="#DC8579"/>
<path d="M91.9603 92.7792C90.2003 100.509 85.4303 106.049 79.8303 106.049C74.2303 106.049 69.4403 100.499 67.6903 92.7592L69.0403 87.5092L69.4503 85.9392H90.1903L91.7403 91.9392L91.8803 92.4792L91.9603 92.7792Z" fill="#0A2044"/>
<path d="M57.7205 63.3592C47.3905 51.7792 54.3205 80.1092 60.0005 76.7792C70.0505 70.9692 57.7205 63.3592 57.7205 63.3592Z" fill="#DC8579"/>
<path d="M103.86 55.0092C103.861 55.878 103.811 56.7461 103.71 57.6092C103.71 58.0392 103.54 59.2692 103.33 60.9992C103.16 62.3792 102.94 64.0792 102.66 65.9992C102.32 68.3492 101.88 70.9992 101.36 73.6192C101.36 73.6192 101.36 73.6892 101.36 73.7192C100.09 80.1492 98.3005 86.5492 95.9605 88.8792C93.3205 91.5192 91.2004 93.8791 88.7804 95.6491C86.1642 97.4844 83.0461 98.469 79.8504 98.469C76.6547 98.469 73.5366 97.4844 70.9204 95.6491C68.5104 93.9191 66.3805 91.5192 63.7405 88.8792C61.4005 86.5392 59.6105 80.1292 58.3305 73.7091C58.1705 72.8791 58.0204 72.0492 57.8704 71.2292L57.6904 70.2292C57.4404 68.7892 57.2205 67.3792 57.0205 66.0592C56.3005 61.1892 55.9504 57.5192 55.9504 57.5192C55.8698 56.715 55.8298 55.9073 55.8305 55.0992C55.8305 54.8892 55.8305 54.6792 55.8305 54.4692C55.8746 52.6149 56.1364 50.7723 56.6105 48.9792L56.6704 48.7392C57.9978 43.8864 60.8166 39.5735 64.7284 36.4099C68.6403 33.2463 73.4474 31.3921 78.4704 31.1092C78.9304 31.1092 79.3804 31.1092 79.8504 31.1092C85.7647 31.1004 91.4739 33.2756 95.8828 37.2177C100.292 41.1597 103.09 46.5908 103.74 52.4692C103.826 53.3131 103.866 54.1609 103.86 55.0092Z" fill="#DC8579"/>
<path d="M106.744 44.3542V59.5242L102.534 63.8142L95.597 51.2789C94.5402 49.3694 92.5298 48.1842 90.3473 48.1842H68.5792C66.3925 48.1842 64.379 49.3739 63.3239 51.2892L56.4243 63.8142L52.2143 59.5242V44.3542C52.2104 42.5872 52.4288 40.8268 52.8643 39.1143L55.3143 37.5843L73.7643 29.9543L79.4843 27.5942L85.1943 29.9543L103.644 37.5843L106.094 39.1143C106.53 40.8268 106.748 42.5872 106.744 44.3542Z" fill="#0A2044"/>
<path d="M137.06 135.049C129.646 142.749 120.754 148.874 110.917 153.057C101.08 157.241 90.5 159.397 79.8104 159.397C69.1208 159.397 58.5411 157.241 48.7042 153.057C38.8672 148.874 29.9753 142.749 22.5604 135.049L23.9304 129.659C24.9442 125.676 27.0275 122.045 29.955 119.16C32.8824 116.275 36.5428 114.245 40.5404 113.289L42.6304 112.789L51.4504 110.689L53.6104 110.169L54.1604 110.039C55.3719 109.751 56.5463 109.325 57.6604 108.769C60.5008 111.797 63.9318 114.211 67.7415 115.86C71.5512 117.51 75.6588 118.361 79.8104 118.361C83.9621 118.361 88.0696 117.51 91.8793 115.86C95.6891 114.211 99.1201 111.797 101.96 108.769C103.076 109.322 104.25 109.748 105.46 110.039L105.9 110.149L107.83 110.609L116.88 112.769L119.08 113.289C123.078 114.243 126.738 116.273 129.664 119.159C132.59 122.044 134.67 125.676 135.68 129.659L137.06 135.049Z" fill="#4DD0E1"/>
<path d="M58.6404 108.229V156.509C51.3709 154.514 44.4264 151.483 38.0204 147.509C32.3716 144.012 27.1815 139.823 22.5704 135.039L23.9404 129.639C24.9568 125.658 27.0411 122.03 29.9683 119.147C32.8955 116.264 36.5545 114.235 40.5504 113.279L41.4504 113.069L51.4504 110.679L54.1804 110.029C55.315 109.755 56.4177 109.363 57.4704 108.859C57.8604 108.669 58.2604 108.449 58.6404 108.229Z" fill="#0A2044"/>
<path d="M137.07 135.039C131.68 140.62 125.51 145.39 118.75 149.199C113.479 152.162 107.886 154.51 102.08 156.199V108.779C103.16 109.314 104.297 109.724 105.47 109.999L107.99 110.599L119.09 113.249C123.086 114.205 126.745 116.234 129.673 119.117C132.6 122 134.684 125.628 135.7 129.609L137.07 135.039Z" fill="#0A2044"/>
<circle cx="88.7357" cy="67.3206" r="2.89072" fill="#0A2044"/>
<circle cx="71.4041" cy="67.3206" r="2.89072" fill="#0A2044"/>
<path d="M81.2123 79.1365L81.2121 67.4432C81.2121 64.6817 83.4507 62.4431 86.2121 62.4431L92.7359 62.4431M67.212 62.4431L75.7359 62.4431" stroke="#0A2044" stroke-width="2" stroke-linecap="round"/>
<path d="M83.4301 83.5983C83.4301 85.2583 81.7401 86.5983 79.6501 86.5983C77.5601 86.5983 75.8801 85.2583 75.8801 83.5983C75.8772 83.3987 75.9041 83.1999 75.9601 83.0083C76.263 83.7389 76.7757 84.3633 77.4334 84.8026C78.0911 85.2419 78.8642 85.4763 79.6551 85.4763C80.446 85.4763 81.2191 85.2419 81.8768 84.8026C82.5345 84.3633 83.0472 83.7389 83.3501 83.0083C83.4061 83.1999 83.433 83.3987 83.4301 83.5983Z" fill="#0A2044"/>
</svg>
