<svg width="160" height="160" viewBox="0 0 160 160" fill="none" xmlns="http://www.w3.org/2000/svg">
<path d="M137.511 135.073C130.094 142.768 121.201 148.888 111.364 153.069C101.528 157.249 90.9493 159.404 80.2614 159.404C69.5734 159.404 58.9951 157.249 49.1585 153.069C39.322 148.888 30.4292 142.768 23.0114 135.073L24.3813 129.673C25.3252 125.966 27.1975 122.56 29.8218 119.776C32.4461 116.993 35.736 114.923 39.3813 113.763H39.4713L40.9814 113.343L54.6114 110.073C55.7459 109.799 56.8486 109.407 57.9014 108.903L58.0514 108.823C59.7994 107.97 61.3809 106.812 62.7213 105.403C64.6519 103.356 66.0286 100.85 66.7213 98.1231L67.7813 94.0031L68.0614 92.8931V92.8031L69.4214 87.5531L69.8214 85.9831H90.6714L92.2213 91.9831L92.3614 92.5231L92.4413 92.8231V92.8931L92.7314 94.0131L93.7914 98.1231C94.5458 101.023 96.0707 103.665 98.2044 105.768C100.338 107.872 103.001 109.36 105.911 110.073L119.531 113.323C123.527 114.279 127.186 116.308 130.113 119.191C133.041 122.074 135.125 125.702 136.141 129.683L137.511 135.073Z" fill="#F9D8D0"/>
<path d="M159.801 79.8231C159.803 95.555 155.14 110.934 146.401 124.016C137.663 137.097 125.241 147.294 110.707 153.316C96.1731 159.337 80.1799 160.914 64.75 157.846C49.3201 154.778 35.1465 147.203 24.0216 136.08C12.8967 124.956 5.3203 110.784 2.25042 95.3542C-0.81946 79.9247 0.755116 63.9314 6.77502 49.3967C12.7949 34.8621 22.9897 22.4391 36.0702 13.6987C49.1507 4.95827 64.5294 0.293074 80.2613 0.293074C90.7166 0.254749 101.076 2.28563 110.743 6.26869C120.41 10.2517 129.193 16.1083 136.587 23.5008C143.98 30.8934 149.838 39.6758 153.822 49.3422C157.806 59.0086 159.838 69.3678 159.801 79.8231Z" fill="white"/>
<path d="M130.791 104.333C127.556 109.505 122.398 113.179 116.453 114.548C110.508 115.917 104.263 114.869 99.0914 111.633C93.9197 108.397 90.2451 103.24 88.8761 97.2949C87.5071 91.35 88.5558 85.1048 91.7914 79.933C92.364 79.04 92.6377 77.9881 92.5729 76.9293C92.5082 75.8705 92.1085 74.8597 91.4314 74.043C89.2755 71.5405 87.9971 68.4015 87.7913 65.1047C87.5854 61.808 88.4635 58.5343 90.2914 55.783C92.4559 52.5576 95.7662 50.2761 99.5508 49.4014C103.335 48.5268 107.311 49.1244 110.671 51.073C113.155 52.5306 115.171 54.6662 116.483 57.2291C117.796 59.7921 118.35 62.6762 118.081 65.543C117.96 66.5912 118.173 67.6509 118.69 68.5706C119.208 69.4903 120.003 70.2227 120.961 70.663C121.788 71.0304 122.592 71.4444 123.371 71.903C126.043 73.4949 128.363 75.612 130.193 78.1262C132.023 80.6404 133.324 83.4996 134.018 86.531C134.711 89.5623 134.783 92.7028 134.229 95.7626C133.674 98.8224 132.505 101.738 130.791 104.333Z" fill="#0A2044"/>
<path d="M103.531 57.4231C108.215 57.4231 112.011 53.6264 112.011 48.9431C112.011 44.2597 108.215 40.4631 103.531 40.4631C98.848 40.4631 95.0514 44.2597 95.0514 48.9431C95.0514 53.6264 98.848 57.4231 103.531 57.4231Z" fill="#4DD0E1"/>
<path d="M137.511 135.073C130.094 142.768 121.201 148.888 111.364 153.069C101.528 157.249 90.9493 159.404 80.2614 159.404C69.5734 159.404 58.9951 157.249 49.1585 153.069C39.322 148.888 30.4292 142.768 23.0114 135.073L24.3813 129.673C25.3252 125.966 27.1975 122.56 29.8218 119.776C32.4461 116.993 35.736 114.923 39.3813 113.763H39.4713L40.9814 113.343L54.6114 110.073C55.7459 109.799 56.8486 109.407 57.9014 108.903L58.0514 108.823C59.7994 107.97 61.3809 106.812 62.7213 105.403C64.6519 103.356 66.0286 100.85 66.7213 98.1231L67.7813 94.0031L68.0614 92.8931V92.8031L69.4214 87.5531L69.8214 85.9831H90.6714L92.2213 91.9831L92.3614 92.5231L92.4413 92.8231V92.8931L92.7314 94.0131L93.7914 98.1231C94.5458 101.023 96.0707 103.665 98.2044 105.768C100.338 107.872 103.001 109.36 105.911 110.073L119.531 113.323C123.527 114.279 127.186 116.308 130.113 119.191C133.041 122.074 135.125 125.702 136.141 129.683L137.511 135.073Z" fill="#F9D8D0"/>
<path d="M137.511 135.073C130.094 142.768 121.201 148.888 111.364 153.069C101.528 157.249 90.9493 159.404 80.2614 159.404C69.5734 159.404 58.9951 157.249 49.1585 153.069C39.322 148.888 30.4292 142.768 23.0114 135.073L24.3813 129.673C25.3252 125.966 27.1975 122.56 29.8218 119.776C32.4461 116.993 35.736 114.923 39.3813 113.763H39.4713L40.9814 113.343L54.6114 110.073C55.7459 109.799 56.8486 109.407 57.9014 108.903L58.0514 108.823C59.7994 107.97 61.3809 106.812 62.7213 105.403L73.6714 127.993L80.3714 141.863L87.0114 127.983L97.8314 105.353C100.02 107.658 102.83 109.28 105.921 110.023L119.541 113.273C123.537 114.229 127.196 116.258 130.123 119.141C133.051 122.024 135.135 125.652 136.151 129.633L137.511 135.073Z" fill="white"/>
<path d="M92.3914 92.7731C90.6714 100.503 85.8714 106.073 80.2614 106.073C74.6514 106.073 69.8814 100.513 68.1214 92.7831L69.4814 87.5331L69.8814 85.9631H90.6714L92.2214 91.9631L92.3614 92.4931L92.3914 92.7731Z" fill="#0A2044"/>
<path d="M56.1514 65.3931C45.8214 53.8031 52.7114 82.1431 58.4314 78.8231C68.4714 73.0031 56.1514 65.3931 56.1514 65.3931Z" fill="#F9D8D0"/>
<path d="M104.361 65.3931C114.691 53.8031 107.791 82.1431 102.081 78.8231C92.0314 73.0031 104.361 65.3931 104.361 65.3931Z" fill="#F9D8D0"/>
<path d="M107.531 54.6031C107.533 57.2136 107.245 59.8163 106.671 62.3631C103.671 75.7731 92.9814 85.6731 80.2714 85.6731C65.2114 85.6731 53.0014 71.763 53.0014 54.593C52.9989 52.341 53.2133 50.094 53.6414 47.8831C54.8269 41.4275 57.9689 35.4926 62.6414 30.8831C67.3236 26.222 73.6449 23.5801 80.2514 23.5231C89.5514 23.5231 97.7614 28.8331 102.681 36.9431C105.883 42.2753 107.56 48.3836 107.531 54.6031Z" fill="#0A2044"/>
<path d="M104.301 55.003C104.302 55.8719 104.252 56.74 104.151 57.603C103.931 59.883 101.401 83.813 96.3714 88.843C93.7414 91.483 91.6114 93.843 89.1914 95.613C86.5741 97.4455 83.4564 98.4284 80.2614 98.4284C77.0664 98.4284 73.9487 97.4455 71.3314 95.613C68.7705 93.5374 66.3703 91.2709 64.1514 88.833C61.7714 86.453 59.9514 79.833 58.6714 73.263C58.5414 72.553 58.4014 71.853 58.2814 71.153L58.1014 70.153C56.9414 63.373 56.3614 57.443 56.3614 57.443C56.2914 56.653 56.2414 55.843 56.2414 55.023C56.2414 54.813 56.2414 54.603 56.2414 54.393C56.2905 52.5392 56.5522 50.6972 57.0214 48.903L57.0814 48.663C58.4215 43.8154 61.2451 39.5089 65.1565 36.3472C69.0678 33.1855 73.8706 31.3272 78.8914 31.033C79.3414 31.033 79.8014 31.033 80.2614 31.033C86.6266 31.033 92.7311 33.5616 97.232 38.0625C101.733 42.5633 104.261 48.6678 104.261 55.033L104.301 55.003Z" fill="#F9D8D0"/>
<path d="M106.891 47.8931L104.181 57.4231C104.181 57.4231 97.4214 56.6531 95.1814 48.4231C94.6878 46.6521 93.6255 45.0925 92.1581 43.9848C90.6908 42.8771 88.8999 42.2826 87.0614 42.2931H73.4514C71.6129 42.2826 69.822 42.8771 68.3546 43.9848C66.8873 45.0925 65.825 46.6521 65.3314 48.4231C63.1114 56.6831 56.3314 57.4231 56.3314 57.4231L53.6714 47.8931C54.4056 44.0229 55.8245 40.3148 57.8614 36.9431C58.0114 36.6931 58.1714 36.4431 58.3314 36.1931C58.7314 35.5831 59.1414 34.9831 59.5714 34.4131C59.8114 34.0931 60.0614 33.7831 60.3114 33.4731L60.9614 32.6931L61.0714 32.5731C61.3314 32.2831 61.5914 31.9931 61.8614 31.7131C62.1314 31.4331 62.4114 31.1531 62.6914 30.8831C63.2814 30.3031 63.9014 29.7631 64.5314 29.2431L65.3414 28.6131L65.5714 28.4431L66.5014 27.7931C67.1814 27.3431 67.8714 26.9231 68.5814 26.5331C69.2914 26.1431 70.0214 25.8031 70.7614 25.4831C71.1214 25.3231 71.4914 25.1831 71.8614 25.0431C72.2314 24.9031 72.7114 24.7331 73.1414 24.6131L73.9514 24.3731C74.4814 24.2231 75.0214 24.0931 75.5614 23.9931C75.9014 23.9231 76.2414 23.8631 76.5614 23.8131L77.6714 23.6631H77.7814C78.1214 23.6631 78.4614 23.5931 78.7814 23.5831C78.9579 23.5731 79.1349 23.5731 79.3114 23.5831H80.2314H81.1614C81.3379 23.5731 81.5148 23.5731 81.6914 23.5831C82.0314 23.5831 82.3814 23.5831 82.6914 23.6631H82.8014L83.9114 23.8131C84.2914 23.8131 84.6614 23.9331 85.0314 24.0131H85.1414L86.1414 24.2431L86.5614 24.3531L87.3714 24.5931C87.7914 24.7231 88.2114 24.8631 88.6214 25.0131C89.0314 25.1631 89.3814 25.3031 89.7514 25.4631C90.8734 25.9441 91.9624 26.4986 93.0114 27.1231C93.4714 27.3931 93.9014 27.7031 94.3414 28.0031C94.5714 28.1531 94.7914 28.3131 95.0014 28.4731C95.9933 29.2064 96.9354 30.0048 97.8214 30.8631C98.1014 31.1331 98.3814 31.4131 98.6514 31.6931C98.9214 31.9731 99.1814 32.2631 99.4414 32.5531L99.5514 32.6731L100.201 33.4531C100.451 33.7631 100.701 34.0731 100.941 34.3931C101.371 34.9631 101.781 35.5631 102.181 36.1731L102.651 36.9331C104.707 40.3043 106.143 44.0162 106.891 47.8931Z" fill="#0A2044"/>
<path d="M89.8014 25.4731C90.546 25.7846 91.2736 26.1351 91.9814 26.5231C91.2714 26.1431 90.5414 25.7931 89.8014 25.4731Z" fill="#0A2044"/>
<path d="M91.9814 26.5231C92.6961 26.9069 93.3903 27.3274 94.0615 27.7831C93.3815 27.3331 92.6714 26.9131 91.9814 26.5231Z" fill="#0A2044"/>
<path d="M98.6714 31.7031C98.2614 31.2731 97.8314 30.8731 97.4014 30.4731C97.5414 30.6031 97.7014 30.7331 97.8414 30.8731C97.9814 31.0131 98.4314 31.4231 98.6714 31.7031Z" fill="#0A2044"/>
<path d="M95.0514 28.4831C95.6014 28.8931 96.1314 29.3231 96.6614 29.7731C96.1314 29.3231 95.6014 28.8831 95.0514 28.4831Z" fill="#0A2044"/>
<path d="M97.4314 30.4731L96.6614 29.7731C96.9214 29.9931 97.1714 30.2331 97.4314 30.4731Z" fill="#0A2044"/>
<path d="M63.4114 30.183C63.2014 30.363 63.0114 30.5431 62.8114 30.7331C63.0114 30.5431 63.2014 30.363 63.4114 30.183Z" fill="#0A2044"/>
<path d="M62.6714 30.8731L62.8214 30.7331C62.4914 31.0531 62.1614 31.3631 61.8214 31.7331C62.1014 31.4231 62.3814 31.1431 62.6714 30.8731Z" fill="#0A2044"/>
<path d="M64.5014 29.2331C64.1314 29.5331 63.7614 29.8531 63.4114 30.1831C63.7614 29.8531 64.1314 29.5431 64.5014 29.2331Z" fill="#0A2044"/>
<path d="M66.4714 27.7831C67.1425 27.3274 67.8368 26.9069 68.5514 26.5231C67.8414 26.9131 67.1514 27.3331 66.4714 27.7831Z" fill="#0A2044"/>
<path d="M68.5514 26.5231C69.2591 26.1351 69.9868 25.7846 70.7314 25.4731C69.9914 25.7931 69.2614 26.1431 68.5514 26.5231Z" fill="#0A2044"/>
<path d="M137.511 135.073C130.094 142.768 121.201 148.888 111.364 153.069C101.528 157.249 90.9493 159.404 80.2614 159.404C69.5734 159.404 58.9951 157.249 49.1585 153.069C39.322 148.888 30.4292 142.768 23.0114 135.073L24.3813 129.673C25.3252 125.966 27.1975 122.56 29.8218 119.776C32.4461 116.993 35.736 114.923 39.3813 113.763H39.4713L40.9814 113.343L66.3513 125.563C70.7164 127.675 75.5025 128.771 80.3513 128.771C85.2002 128.771 89.9863 127.675 94.3513 125.563L119.531 113.363C123.527 114.319 127.186 116.348 130.113 119.231C133.041 122.114 135.125 125.742 136.141 129.723L137.511 135.073Z" fill="#4DD0E1"/>
<path d="M87.0014 127.983L80.3614 141.863L73.6714 127.993C78.0664 128.923 82.6078 128.92 87.0014 127.983Z" fill="#0A2044"/>
<path d="M137.511 135.073C130.094 142.768 121.201 148.888 111.364 153.069C101.528 157.249 90.9493 159.404 80.2614 159.404C69.5734 159.404 58.9951 157.249 49.1585 153.069C39.322 148.888 30.4292 142.768 23.0114 135.073L24.3813 129.673C25.3252 125.966 27.1975 122.56 29.8218 119.776C32.4461 116.993 35.736 114.923 39.3813 113.763H39.4713L40.9814 113.343L66.3513 125.563C68.6761 126.685 71.1269 127.524 73.6514 128.063L80.3513 141.933L86.9914 128.053C89.534 127.517 92.002 126.674 94.3414 125.543L119.521 113.343C123.517 114.299 127.176 116.328 130.103 119.211C133.031 122.094 135.115 125.722 136.131 129.703L137.511 135.073Z" fill="#4DD0E1"/>
<path d="M67.9014 122.653H65.2514V146.203H67.9014V122.653Z" fill="#0A2044"/>
<path d="M95.4215 122.653H92.7715V146.203H95.4215V122.653Z" fill="#0A2044"/>
<circle cx="88.7357" cy="67.3206" r="2.89072" fill="#0A2044"/>
<circle cx="71.4041" cy="67.3206" r="2.89072" fill="#0A2044"/>
<path d="M81.2123 79.1365L81.2121 67.4432C81.2121 64.6817 83.4507 62.4431 86.2121 62.4431L92.7359 62.4431M67.212 62.4431L75.7359 62.4431" stroke="#0A2044" stroke-width="2" stroke-linecap="round"/>
<path d="M83.4301 83.5983C83.4301 85.2583 81.7401 86.5983 79.6501 86.5983C77.5601 86.5983 75.8801 85.2583 75.8801 83.5983C75.8772 83.3987 75.9041 83.1999 75.9601 83.0083C76.263 83.7389 76.7757 84.3633 77.4334 84.8026C78.0911 85.2419 78.8642 85.4763 79.6551 85.4763C80.446 85.4763 81.2191 85.2419 81.8768 84.8026C82.5345 84.3633 83.0472 83.7389 83.3501 83.0083C83.4061 83.1999 83.433 83.3987 83.4301 83.5983Z" fill="#0A2044"/>
</svg>
