<svg width="161" height="160" viewBox="0 0 161 160" fill="none" xmlns="http://www.w3.org/2000/svg">
<path d="M160.004 79.8384C160.006 95.5707 155.342 110.95 146.603 124.032C137.864 137.114 125.441 147.31 110.907 153.332C96.3726 159.353 80.3789 160.929 64.9487 157.861C49.5185 154.792 35.3449 147.216 24.2205 136.092C13.096 124.967 5.52034 110.794 2.45159 95.3634C-0.617157 79.9332 0.958845 63.9395 6.98028 49.4051C13.0017 34.8707 23.1981 22.4483 36.2799 13.7091C49.3617 4.96988 64.7414 0.30638 80.4737 0.308358C90.9281 0.271355 101.287 2.30319 110.952 6.28684C120.618 10.2705 129.4 16.1272 136.792 23.5196C144.185 30.9121 150.042 39.6941 154.025 49.3598C158.009 59.0255 160.041 69.384 160.004 79.8384Z" fill="white"/>
<path d="M92.6037 92.7883C90.8437 100.518 86.0737 106.058 80.4737 106.058C74.8737 106.058 70.0837 100.508 68.3337 92.7683L69.6837 87.5183L70.0937 85.9483H90.8337L92.3837 91.9483L92.5237 92.4883L92.6037 92.7883Z" fill="#D2D4DA"/>
<path d="M53.4037 100.518H105.694C108.431 100.518 111.056 101.606 112.991 103.541C114.926 105.476 116.014 108.101 116.014 110.838V118.988H43.0837V110.848C43.0824 109.492 43.3484 108.149 43.8664 106.896C44.3845 105.643 45.1444 104.504 46.1029 103.544C47.0613 102.585 48.1994 101.824 49.4521 101.305C50.7049 100.786 52.0477 100.518 53.4037 100.518Z" fill="#4DD0E1"/>
<path d="M79.7037 29.1284H80.7837C87.645 29.1284 94.2257 31.8519 99.0801 36.7007C103.935 41.5496 106.666 48.1271 106.674 54.9883V68.7083H53.8137V54.9883C53.8217 48.1271 56.5529 41.5496 61.4073 36.7007C66.2618 31.8519 72.8425 29.1284 79.7037 29.1284Z" fill="#0A2044"/>
<path d="M104.574 63.3683C114.904 51.7783 108.014 80.1183 102.294 76.8083C92.2538 70.9883 104.574 63.3683 104.574 63.3683Z" fill="#F9D8D0"/>
<path d="M137.714 135.048C132.324 140.629 126.153 145.399 119.394 149.208C108.645 155.261 96.6267 158.71 84.3037 159.278C83.0337 159.348 81.7538 159.378 80.4638 159.378C74.1959 159.382 67.9495 158.647 61.8537 157.188C53.6564 155.226 45.8269 151.961 38.6637 147.518C33.0149 144.021 27.8248 139.832 23.2137 135.048L24.5837 129.648C25.6002 125.667 27.6844 122.04 30.6116 119.156C33.5388 116.273 37.1978 114.244 41.1937 113.288L42.0938 113.078L52.0938 110.688L54.8237 110.038C56.8997 109.54 58.8592 108.643 60.5938 107.398C61.4356 106.808 62.2192 106.138 62.9338 105.398C64.8643 103.351 66.241 100.846 66.9338 98.1183L67.9938 93.9984L68.2738 92.8883V92.7983L69.6338 87.5483L70.0337 85.9783H90.7837L92.3337 91.9783L92.4737 92.5183L92.5537 92.8183V92.8883L92.8437 94.0083L93.9037 98.1183C94.8741 101.876 97.1363 105.172 100.294 107.428C102.021 108.679 103.979 109.576 106.054 110.068L108.574 110.668L119.674 113.318C123.67 114.274 127.329 116.303 130.256 119.186C133.183 122.07 135.267 125.697 136.284 129.678L137.714 135.048Z" fill="#F9D8D0"/>
<path d="M98.9438 126.658H60.7538V146.208H98.9438V126.658Z" fill="#4DD0E1"/>
<path d="M92.6037 92.7883C90.8437 100.518 86.0737 106.058 80.4737 106.058C74.8737 106.058 70.0837 100.508 68.3337 92.7683L69.6837 87.5183L70.0937 85.9483H90.8337L92.3837 91.9483L92.5237 92.4883L92.6037 92.7883Z" fill="#0A2044"/>
<path d="M56.3638 63.3683C46.0338 51.7783 52.9337 80.1183 58.6437 76.8083C68.6938 70.9883 56.3638 63.3683 56.3638 63.3683Z" fill="#F9D8D0"/>
<path d="M104.474 54.9883C104.474 55.8572 104.424 56.7253 104.324 57.5883C104.204 58.8083 103.424 66.1783 101.964 73.5883C101.964 73.5883 101.964 73.6584 101.964 73.6884C100.694 80.1184 98.9037 86.5183 96.5637 88.8483C93.9237 91.4883 91.8037 93.8483 89.3837 95.6183C86.7675 97.4536 83.6494 98.4382 80.4537 98.4382C77.258 98.4382 74.1399 97.4536 71.5237 95.6183C69.1137 93.8883 66.9837 91.4883 64.3437 88.8483C62.0037 86.5083 60.2137 80.0983 58.9337 73.6783C58.7737 72.8483 58.6237 72.0183 58.4737 71.1983L58.2937 70.1983C57.1237 63.4183 56.5537 57.4883 56.5537 57.4883C56.4837 56.657 56.457 55.8225 56.4737 54.9883C56.4737 54.7783 56.4737 54.5683 56.4737 54.3583C56.5179 52.5041 56.7797 50.6615 57.2537 48.8683L57.3137 48.6284C58.6376 43.7784 61.4511 39.4666 65.3572 36.3016C69.2633 33.1365 74.0646 31.278 79.0837 30.9883C79.5437 30.9883 79.9937 30.9883 80.4637 30.9883C86.8289 30.9883 92.9334 33.5169 97.4342 38.0178C101.935 42.5187 104.464 48.6231 104.464 54.9883H104.474Z" fill="#F9D8D0"/>
<path d="M84.2438 83.6284C84.2438 85.2884 82.5538 86.6284 80.4638 86.6284C78.3738 86.6284 76.6938 85.2784 76.6938 83.6284C76.6902 83.432 76.7172 83.2363 76.7738 83.0483C77.0767 83.7789 77.5894 84.4033 78.2471 84.8426C78.9048 85.2819 79.6779 85.5164 80.4688 85.5164C81.2597 85.5164 82.0328 85.2819 82.6905 84.8426C83.3482 84.4033 83.8609 83.7789 84.1638 83.0483C84.2204 83.2363 84.2474 83.432 84.2438 83.6284Z" fill="#0A2044"/>
<path d="M56.4738 52.3883V64.8983L57.6738 65.9883H59.2338C60.1929 65.9868 61.1239 65.6639 61.8779 65.0711C62.632 64.4784 63.1657 63.65 63.3938 62.7184L65.3938 54.4183C65.767 52.8989 66.6386 51.5483 67.8694 50.5822C69.1001 49.616 70.6191 49.0901 72.1838 49.0883H88.9338C90.4984 49.0901 92.0174 49.616 93.2481 50.5822C94.4789 51.5483 95.3505 52.8989 95.7238 54.4183L97.7238 62.7184C97.9518 63.65 98.4855 64.4784 99.2396 65.0711C99.9936 65.6639 100.925 65.9868 101.884 65.9883H102.644C102.875 65.994 103.101 65.9193 103.283 65.7771C103.466 65.6349 103.593 65.4339 103.644 65.2083L104.644 61.3183V52.3883C104.644 49.578 104.09 46.7953 103.015 44.1989C101.939 41.6025 100.363 39.2434 98.3758 37.2563C96.3887 35.2691 94.0295 33.6928 91.4332 32.6173C88.8368 31.5419 86.054 30.9883 83.2438 30.9883H77.8538C72.1816 30.9936 66.7436 33.2506 62.7346 37.2633C58.7256 41.276 56.4738 46.7162 56.4738 52.3883Z" fill="#0A2044"/>
<path d="M136.344 129.648C135.327 125.667 133.243 122.04 130.316 119.156C127.389 116.273 123.73 114.244 119.734 113.288L115.964 112.388L101.654 104.388V111.448C101.653 116.082 100.001 120.563 96.9938 124.088L80.2438 143.708L62.0537 122.398C59.0435 118.875 57.3909 114.392 57.3937 109.758V104.388L43.0837 112.388L43.2637 112.798L42.0938 113.078L41.1937 113.288C37.1978 114.244 33.5388 116.273 30.6116 119.156C27.6844 122.04 25.6002 125.667 24.5837 129.648L23.2137 135.048C27.8248 139.832 33.0149 144.021 38.6637 147.518C45.8269 151.961 53.6564 155.226 61.8537 157.188C67.9528 158.647 74.2026 159.382 80.4737 159.378C81.7637 159.378 83.0437 159.378 84.3137 159.278C96.6367 158.71 108.655 155.261 119.404 149.208C126.163 145.399 132.334 140.629 137.724 135.048L136.344 129.648Z" fill="#0A2044"/>
<path d="M59.9737 124.238H57.7137V148.188H59.9737V124.238Z" fill="#4DD0E1"/>
<path d="M103.224 124.238H100.964V148.188H103.224V124.238Z" fill="#4DD0E1"/>
<circle cx="88.7705" cy="67.4512" r="2.89072" fill="#0A2044"/>
<circle cx="71.4389" cy="67.4512" r="2.89072" fill="#0A2044"/>
<path d="M81.2471 79.2671L81.2469 67.5738C81.2469 64.8123 83.4855 62.5737 86.2469 62.5737L92.7707 62.5737M67.2468 62.5737L75.7707 62.5737" stroke="#0A2044" stroke-width="2" stroke-linecap="round"/>
</svg>
