<svg width="161" height="160" viewBox="0 0 161 160" fill="none" xmlns="http://www.w3.org/2000/svg">
<path d="M160.042 79.8483C160.042 95.5802 155.377 110.959 146.636 124.039C137.896 137.12 125.473 147.315 110.938 153.335C96.4036 159.355 80.4102 160.929 64.9807 157.859C49.5512 154.789 35.3785 147.213 24.2551 136.088C13.1316 124.963 5.55695 110.79 2.48901 95.3596C-0.57893 79.9297 0.997653 63.9366 7.01938 49.4027C13.0411 34.8689 23.2375 22.4471 36.3191 13.7083C49.4007 4.96957 64.7799 0.306311 80.5119 0.308289C90.9664 0.273938 101.324 2.30793 110.99 6.29314C120.655 10.2784 129.436 16.1361 136.828 23.529C144.22 30.922 150.077 39.7041 154.061 49.3698C158.045 59.0355 160.078 69.3938 160.042 79.8483Z" fill="white"/>
<path d="M93.4919 30.9883H67.4919C65.5899 30.987 63.7089 31.3865 61.9716 32.1607C60.2343 32.9349 58.6795 34.0665 57.4087 35.4816C56.1379 36.8968 55.1795 38.5638 54.5959 40.3741C54.0124 42.1844 53.8168 44.0974 54.0219 45.9883L56.4419 68.8583H104.512L106.922 45.9883C107.127 44.1007 106.932 42.1912 106.351 40.3836C105.77 38.5761 104.815 36.911 103.548 35.4965C102.282 34.082 100.732 32.9496 98.9996 32.1729C97.267 31.3963 95.3905 30.9926 93.4919 30.9883Z" fill="#0A2044"/>
<path d="M137.762 135.058C130.343 142.752 121.45 148.871 111.614 153.051C101.777 157.23 91.1995 159.385 80.5119 159.385C69.8243 159.385 59.2464 157.23 49.4099 153.051C39.5735 148.871 30.6804 142.752 23.2619 135.058L24.6319 129.668C25.6457 125.685 27.7289 122.055 30.6564 119.169C33.5839 116.284 37.2443 114.254 41.2419 113.298L54.8619 110.048C57.7797 109.347 60.4519 107.866 62.5922 105.763C64.7325 103.659 66.2603 101.013 67.0119 98.1083L68.0719 93.9783L68.3519 92.8683V92.7783L69.7019 87.5283L70.1019 85.9583H90.8519L92.4019 91.9583L92.5419 92.4983L92.6219 92.7983V92.8683L92.9119 93.9983L93.9719 98.1083C94.7215 101.014 96.2486 103.662 98.3892 105.765C100.53 107.869 103.203 109.35 106.122 110.048L119.742 113.298C123.74 114.254 127.4 116.284 130.327 119.169C133.255 122.055 135.338 125.685 136.352 129.668L137.762 135.058Z" fill="#F9D8D0"/>
<path d="M92.6419 92.7883C90.8919 100.528 86.1219 106.068 80.5119 106.068C74.9019 106.068 70.1319 100.508 68.3719 92.7683L69.7319 87.5183L70.1319 85.9483H90.8819L92.4319 91.9483L92.5719 92.4883L92.6419 92.7883Z" fill="#0A2044"/>
<path d="M57.3019 63.3783C46.9719 51.7883 53.8719 80.1283 59.5819 76.8083C69.6319 70.9883 57.3019 63.3783 57.3019 63.3783Z" fill="#F9D8D0"/>
<path d="M103.712 63.3783C114.042 51.7883 107.152 80.1283 101.432 76.8083C91.3919 70.9883 103.712 63.3783 103.712 63.3783Z" fill="#F9D8D0"/>
<path d="M104.552 55.0183C104.551 55.8868 104.504 56.7547 104.412 57.6183C104.312 58.6983 103.672 64.6183 102.512 71.1483C101.222 78.3483 99.2719 86.2183 96.6319 88.8583C95.2519 90.2383 94.0019 91.5583 92.7819 92.7483C91.7452 93.7938 90.6285 94.7568 89.4419 95.6283C87.7713 96.8666 85.8495 97.7234 83.8119 98.1383C82.7281 98.35 81.6261 98.4539 80.5219 98.4483C77.1084 98.531 73.7755 97.4046 71.1119 95.2683C70.116 94.4816 69.1646 93.6403 68.2619 92.7483C67.0519 91.5583 65.8019 90.2383 64.4219 88.8583C62.4219 86.8583 60.8819 82.0883 59.6719 76.7983C59.2419 74.9483 58.8619 73.0383 58.5319 71.1683L58.3519 70.1683C57.1919 63.3883 56.6119 57.4583 56.6119 57.4583C56.5419 56.6683 56.4919 55.8583 56.4919 55.0383C56.4919 54.8283 56.4919 54.6183 56.4919 54.4083C56.541 52.5545 56.8027 50.7125 57.2719 48.9183L57.3319 48.6783C58.6621 43.831 61.4772 39.5219 65.3817 36.3563C69.2863 33.1907 74.0842 31.3275 79.1019 31.0283C79.5519 31.0283 80.0119 31.0283 80.4719 31.0283C86.8371 31.0283 92.9416 33.5569 97.4424 38.0578C101.943 42.5586 104.472 48.6631 104.472 55.0283L104.552 55.0183Z" fill="#F9D8D0"/>
<path d="M69.1019 76.0083C67.3812 76.0083 65.6991 75.498 64.2684 74.5421C62.8377 73.5861 61.7226 72.2273 61.0641 70.6376C60.4056 69.0479 60.2333 67.2986 60.569 65.611C60.9047 63.9234 61.7333 62.3732 62.95 61.1565C64.1667 59.9397 65.7169 59.1111 67.4046 58.7754C69.0922 58.4398 70.8415 58.612 72.4312 59.2705C74.0209 59.929 75.3797 61.0441 76.3356 62.4748C77.2916 63.9055 77.8019 65.5876 77.8019 67.3083C77.7992 69.6149 76.8818 71.8262 75.2508 73.4572C73.6198 75.0882 71.4084 76.0056 69.1019 76.0083ZM69.1019 59.5283C67.5603 59.5263 66.0528 59.9817 64.7702 60.837C63.4876 61.6922 62.4876 62.9087 61.8968 64.3325C61.3059 65.7564 61.1508 67.3235 61.4511 68.8356C61.7513 70.3476 62.4934 71.7366 63.5835 72.8266C64.6736 73.9167 66.0625 74.6588 67.5746 74.9591C69.0866 75.2593 70.6537 75.1042 72.0776 74.5134C73.5014 73.9225 74.718 72.9225 75.5732 71.6399C76.4284 70.3573 76.8838 68.8499 76.8819 67.3083C76.8792 65.2457 76.0587 63.2684 74.6002 61.8099C73.1418 60.3514 71.1644 59.5309 69.1019 59.5283Z" fill="#0A2044"/>
<path d="M91.9519 76.0083C90.2312 76.0083 88.5491 75.498 87.1184 74.5421C85.6877 73.5861 84.5726 72.2273 83.9141 70.6376C83.2557 69.0479 83.0834 67.2986 83.4191 65.611C83.7548 63.9234 84.5833 62.3732 85.8001 61.1565C87.0168 59.9397 88.567 59.1111 90.2546 58.7754C91.9422 58.4398 93.6915 58.612 95.2812 59.2705C96.871 59.929 98.2297 61.0441 99.1857 62.4748C100.142 63.9055 100.652 65.5876 100.652 67.3083C100.649 69.6149 99.7318 71.8262 98.1008 73.4572C96.4698 75.0882 94.2585 76.0056 91.9519 76.0083ZM91.9519 59.5283C90.4108 59.5283 88.9042 59.9854 87.623 60.8418C86.3417 61.6983 85.3432 62.9155 84.7539 64.3395C84.1646 65.7635 84.0109 67.3303 84.3123 68.8417C84.6137 70.3531 85.3566 71.7411 86.4471 72.8302C87.5375 73.9192 88.9265 74.6604 90.4383 74.9598C91.95 75.2593 93.5167 75.1036 94.9399 74.5124C96.3632 73.9213 97.5791 72.9213 98.4339 71.6389C99.2887 70.3565 99.7439 68.8494 99.7419 67.3083C99.7392 65.244 98.9173 63.2651 97.4567 61.8064C95.9961 60.3476 94.0162 59.5283 91.9519 59.5283Z" fill="#0A2044"/>
<path d="M84.1719 67.3083H83.2519C83.2519 66.5816 82.9632 65.8847 82.4493 65.3708C81.9355 64.857 81.2386 64.5683 80.5119 64.5683C79.7852 64.5683 79.0883 64.857 78.5744 65.3708C78.0606 65.8847 77.7719 66.5816 77.7719 67.3083H76.8519C76.8519 66.3376 77.2375 65.4067 77.9239 64.7203C78.6102 64.0339 79.5412 63.6483 80.5119 63.6483C81.4826 63.6483 82.4135 64.0339 83.0999 64.7203C83.7863 65.4067 84.1719 66.3376 84.1719 67.3083Z" fill="#0A2044"/>
<path d="M80.5219 46.5283L80.6319 46.4983L80.6119 46.5583L80.5219 46.5283Z" fill="#0A2044"/>
<path d="M104.467 55.0183C104.467 55.8383 104.467 56.6483 104.347 57.4383C104.347 57.4383 103.767 63.3683 102.607 70.1483C102.607 70.1483 103.777 42.2083 92.6069 42.9783L90.5269 43.5783C83.8903 45.5034 76.8434 45.5034 70.2069 43.5783L68.3369 43.0283C57.1269 42.2583 58.3369 70.1983 58.3369 70.1983C57.1769 63.4183 56.5969 57.4883 56.5969 57.4883C56.5269 56.6983 56.4769 55.8883 56.4769 55.0683C56.4769 54.8583 56.4769 54.6483 56.4769 54.4383C56.526 52.5845 56.7877 50.7424 57.2569 48.9483L57.3169 48.7083C58.4608 44.519 60.7163 40.7171 63.8445 37.705C66.9728 34.6929 70.8573 32.5829 75.0869 31.5983L76.1669 31.3783C76.5669 31.3083 76.9669 31.2483 77.3769 31.1983C77.5321 31.1685 77.6891 31.1485 77.8469 31.1383C78.2469 31.1383 78.6469 31.0583 79.0569 31.0383C79.4669 31.0183 79.9669 31.0383 80.4269 31.0383C80.8869 31.0383 81.3469 31.0383 81.7969 31.0383C82.2469 31.0383 82.6069 31.0983 83.0069 31.1383C83.1646 31.1485 83.3216 31.1685 83.4769 31.1983C83.8869 31.1983 84.2869 31.3083 84.6869 31.3783L85.7669 31.5983C90.0044 32.5683 93.9003 34.6674 97.0413 37.6727C100.182 40.6781 102.451 44.4777 103.607 48.6683L103.667 48.9083C104.136 50.7024 104.398 52.5445 104.447 54.3983C104.457 54.5983 104.467 54.8083 104.467 55.0183Z" fill="#0A2044"/>
<path d="M121.594 147.952C118.196 150.002 114.635 151.803 110.938 153.335C96.4036 159.355 80.4102 160.929 64.9807 157.859C54.8016 155.834 45.1695 151.847 36.599 146.174L36.599 120.052L61.6695 109.046L75.5296 114.141L81.8482 123.313L86.3324 114.141L98.1542 109.046L121.594 120.052V147.952Z" fill="#4DD0E1"/>
<path d="M102.874 66.2093L101.229 72.5993C99.6457 78.6067 96.6034 84.1915 92.3384 88.9193C91.616 89.7181 90.7521 90.3947 89.7845 90.9193V88.9793C89.7845 87.1864 89.0235 85.467 87.6689 84.1992C86.3142 82.9315 84.477 82.2193 82.5612 82.2193H78.7572C76.8423 82.2219 75.0066 82.935 73.6526 84.2022C72.2985 85.4693 71.5366 87.1872 71.5338 88.9793V90.8593C70.6173 90.3452 69.7978 89.6931 69.1082 88.9293C64.8409 84.2029 61.7983 78.6176 60.2179 72.6093L58.7112 66.7193C57.9255 74.6343 57.0563 85.4005 63.541 91.4693C66.362 94.1093 68.638 96.4693 71.2132 98.2393C74.0088 100.075 77.3406 101.059 80.7553 101.059C84.1701 101.059 87.5019 100.075 90.2975 98.2393C92.8834 96.5093 95.1487 94.1093 97.9696 91.4693C104.578 85.3379 103.526 74.2328 102.874 66.2093ZM76.556 92.1293C75.946 92.1277 75.3376 92.0708 74.7394 91.9593V88.9593C74.7394 87.9621 75.1627 87.0057 75.9162 86.3006C76.6697 85.5954 77.6916 85.1993 78.7572 85.1993H82.5612C83.6268 85.1993 84.6487 85.5954 85.4022 86.3006C86.1556 87.0057 86.5789 87.9621 86.5789 88.9593V91.9593C86.0182 92.0547 85.4498 92.1049 84.8799 92.1093L76.556 92.1293Z" fill="#0A2044"/>
<path d="M70.2919 158.528C52.3864 156.215 35.8061 147.861 23.2919 134.848L24.6619 129.458C25.6757 125.475 27.7589 121.844 30.6864 118.959C33.6139 116.074 37.2742 114.044 41.2719 113.088L54.8919 109.838C56.1038 109.552 60.8864 107.157 61.9999 106.6L69.1459 132.564L70.2919 158.528Z" fill="#0A2044"/>
<path d="M66.1288 158.079C65.7458 158.008 65.3631 157.935 64.9807 157.859C64.9142 157.846 64.8477 157.833 64.7812 157.819L55.6719 127.402L59.5619 120.312L51.9719 119.872L54.5019 109.882L55.4919 109.652L52.9219 118.922L61.2018 119.402L56.8318 127.362L66.1288 158.079Z" fill="white"/>
<path d="M91.2919 158.528C109.197 156.215 125.778 147.861 138.292 134.848L136.922 129.458C135.908 125.475 133.825 121.844 130.897 118.959C127.97 116.074 124.31 114.044 120.312 113.088L106.692 109.838C105.48 109.552 100.697 107.157 99.5838 106.6L92.4379 132.564L91.2919 158.528Z" fill="#0A2044"/>
<path d="M96.8406 157.692C96.3911 157.786 95.9408 157.877 95.4898 157.963L104.752 127.362L100.382 119.402L108.662 118.922L106.092 109.652L107.082 109.882L109.612 119.872L102.022 120.312L105.912 127.402L96.8406 157.692Z" fill="white"/>
<path d="M76.421 113.038L70.7115 124.906L61.0474 106.946L63.3368 103.125L76.421 113.038Z" fill="white"/>
<path d="M84.5114 113.038L90.2209 124.906L99.8851 106.946L97.5957 103.125L84.5114 113.038Z" fill="white"/>
<circle cx="88.7357" cy="67.3206" r="2.89072" fill="#0A2044"/>
<circle cx="71.4041" cy="67.3206" r="2.89072" fill="#0A2044"/>
<path d="M81.2123 79.1365L81.212 62.4431" stroke="#0A2044" stroke-width="2" stroke-linecap="round"/>
<path d="M84.4301 86.5983C84.4301 88.2583 82.7401 89.5983 80.6501 89.5983C78.5601 89.5983 76.8801 88.2583 76.8801 86.5983C76.8772 86.3987 76.9041 86.1999 76.9601 86.0083C77.263 86.7389 77.7757 87.3633 78.4334 87.8026C79.0911 88.2419 79.8642 88.4763 80.6551 88.4763C81.446 88.4763 82.2191 88.2419 82.8768 87.8026C83.5345 87.3633 84.0472 86.7389 84.3501 86.0083C84.4061 86.1999 84.433 86.3987 84.4301 86.5983Z" fill="#0A2044"/>
</svg>
