<?xml version="1.0" standalone="no"?>
<!DOCTYPE svg PUBLIC "-//W3C//DTD SVG 1.0//EN" "http://www.w3.org/TR/2001/REC-SVG-20010904/DTD/svg10.dtd">
<svg xmlns="http://www.w3.org/2000/svg" xmlns:xlink="http://www.w3.org/1999/xlink" id="body_1" width="550" height="260">

<g transform="matrix(5 0 0 5 0 0)">
    <path d="M59.5728 16.4861C 60.2449 15.8103 60.6439 14.8806 60.6439 13.8842L60.6439 13.8842L60.6439 10.9071C 60.6439 8.99231 59.4183 7.29654 57.611 6.71083L57.611 6.71083L51.3548 4.68056C 51.1691 4.62028 50.9656 4.66454 50.8209 4.79667L50.8209 4.79667L49.2623 6.22059C 48.9506 6.5053 49.0614 7.02357 49.4617 7.15343L49.4617 7.15343L56.7199 9.50834C 57.3223 9.70357 57.7309 10.2688 57.7309 10.9071L57.7309 10.9071L57.7309 13.1822C 57.7309 14.0386 56.9217 14.6585 56.1037 14.4293L56.1037 14.4293L52.1675 13.3264C 51.4882 13.1361 50.8161 13.6514 50.8161 14.3626C 50.8161 15.3287 51.4547 16.1763 52.3776 16.4349L52.3776 16.4349L53.8864 16.8583C 56.1585 17.4949 57.7309 19.5817 57.7309 21.9604L57.7309 21.9604L57.7309 22.5292C 57.7309 23.5008 56.8127 24.2049 55.8846 23.9448L55.8846 23.9448L48.0688 21.7549C 47.7536 21.6665 47.5355 21.377 47.5355 21.0471L47.5355 21.0471L47.5355 6.70766C 47.5355 6.08992 47.7925 5.50055 48.2439 5.08313L48.2439 5.08313L50.1457 3.32462C 50.5419 2.95835 51.1057 2.84184 51.6127 3.02152L51.6127 3.02152L59.5435 5.83228C 61.1245 6.3926 62.233 7.80742 62.4323 9.45509L62.4323 9.45509L64.8402 7.2205C 64.0693 5.31194 62.5181 3.77206 60.5091 3.06005L60.5091 3.06005L52.5783 0.249292C 51.0574 -0.289756 49.3657 0.0597596 48.1774 1.1586L48.1774 1.1586L46.2756 2.9171C 45.2222 3.89108 44.6225 5.26628 44.6225 6.70766L44.6225 6.70766L44.6225 21.0471C 44.6225 22.697 45.7132 24.1444 47.2892 24.586L47.2892 24.586L55.105 26.776C 57.8892 27.5561 60.6439 25.444 60.6439 22.5292L60.6439 22.5292L60.6439 19.1124C 60.6439 18.2532 60.3453 17.4212 59.8 16.7611L59.8 16.7611L59.5728 16.4861z" stroke="none" fill="#0A2044" fill-rule="nonzero" />
    <path d="M65.3775 10.6638L62.4645 13.3671L62.4645 24.4061C 62.4645 27.7834 59.2917 30.2437 56.0561 29.3754L56.0561 29.3754L55.4942 29.2246C 54.7779 29.0323 54.0427 29.4622 53.8521 30.1848L53.8521 30.1848L53.7933 30.4078C 53.6027 31.1303 54.0289 31.8719 54.7452 32.0641L54.7452 32.0641L55.3072 32.215C 60.3917 33.5795 65.3775 29.7133 65.3775 24.4061L65.3775 24.4061L65.3775 10.6638z" stroke="none" fill="#0A2044" fill-rule="nonzero" />
    <path d="M65.3775 10.6638L62.4645 13.3671L62.4645 24.4061C 62.4645 27.7834 59.2917 30.2437 56.0561 29.3754L56.0561 29.3754L55.4942 29.2246C 54.7779 29.0323 54.0427 29.4622 53.8521 30.1848L53.8521 30.1848L53.7933 30.4078C 53.6027 31.1303 54.0289 31.8719 54.7452 32.0641L54.7452 32.0641L55.3072 32.215C 60.3917 33.5795 65.3775 29.7133 65.3775 24.4061L65.3775 24.4061L65.3775 10.6638z" stroke="none" fill="#4DD0E1" fill-rule="nonzero" />
    <path d="M36.775 49.272L39.8014 49.272C 41.344 49.272 42.6865 48.5118 42.6865 46.825C 42.6865 45.9698 42.2508 45.1145 41.3323 44.8413L41.3323 44.8413L41.3323 44.8175C 41.9682 44.4731 42.345 43.796 42.345 43.012C 42.345 41.6222 41.2734 40.8382 39.7543 40.8382L39.7543 40.8382L36.775 40.8382L36.775 49.272zM38.2941 44.283L38.2941 42.1567L39.7425 42.1567C 40.4373 42.1567 40.8024 42.5962 40.8024 43.2021C 40.8024 43.8079 40.4255 44.283 39.7661 44.283L39.7661 44.283L38.2941 44.283zM38.2941 47.9535L38.2941 45.5184L39.9192 45.5184C 40.6846 45.5184 41.1321 46.0292 41.1321 46.73C 41.1321 47.4427 40.6964 47.9535 39.9192 47.9535L39.9192 47.9535L38.2941 47.9535z" stroke="none" fill="#4DD0E1" fill-rule="nonzero" />
    <path d="M44.0856 44.9957C 44.0856 47.4783 45.8756 49.4145 48.4074 49.4145C 50.9393 49.4145 52.7292 47.4783 52.7292 44.9957C 52.7292 42.5844 50.9393 40.6957 48.4074 40.6957C 45.8756 40.6957 44.0856 42.5844 44.0856 44.9957zM45.6519 44.9957C 45.6519 43.3565 46.8059 42.0973 48.4074 42.0973C 50.009 42.0973 51.163 43.3565 51.163 44.9957C 51.163 46.7062 50.009 48.0129 48.4074 48.0129C 46.8059 48.0129 45.6519 46.7062 45.6519 44.9957z" stroke="none" fill="#4DD0E1" fill-rule="nonzero" />
    <path d="M54.1219 44.9957C 54.1219 47.4783 55.9118 49.4145 58.4437 49.4145C 60.9755 49.4145 62.7655 47.4783 62.7655 44.9957C 62.7655 42.5844 60.9755 40.6957 58.4437 40.6957C 55.9118 40.6957 54.1219 42.5844 54.1219 44.9957zM55.6881 44.9957C 55.6881 43.3565 56.8422 42.0973 58.4437 42.0973C 60.0452 42.0973 61.1993 43.3565 61.1993 44.9957C 61.1993 46.7062 60.0452 48.0129 58.4437 48.0129C 56.8422 48.0129 55.6881 46.7062 55.6881 44.9957z" stroke="none" fill="#4DD0E1" fill-rule="nonzero" />
    <path d="M64.6528 49.272L66.1718 49.272L66.1718 45.5896L67.2552 45.5896L69.2925 49.272L71.0118 49.272L68.5035 44.8769L68.5035 44.8532L70.8705 40.8382L69.2218 40.8382L67.2552 44.2711L66.1718 44.2711L66.1718 40.8382L64.6528 40.8382L64.6528 49.272z" stroke="none" fill="#4DD0E1" fill-rule="nonzero" />
    <path d="M71.9149 48.2623C 72.6686 49.0226 73.7402 49.4145 74.7765 49.4145C 76.5664 49.4145 77.5556 48.2861 77.5556 46.92C 77.5556 44.2355 73.6578 44.6394 73.6578 43.0714C 73.6578 42.4893 74.1641 42.1092 74.9296 42.1092C 75.589 42.1092 76.3074 42.4299 76.7666 42.8457L76.7666 42.8457L77.4379 41.5984C 76.7784 40.9926 75.8599 40.6957 74.9885 40.6957C 73.3634 40.6957 72.1387 41.6578 72.1387 43.1427C 72.1387 45.7678 76.0365 45.4352 76.0365 47.0388C 76.0365 47.609 75.5655 48.001 74.8118 48.001C 74.0346 48.001 73.2338 47.5615 72.7393 47.1101L72.7393 47.1101L71.9149 48.2623z" stroke="none" fill="#4DD0E1" fill-rule="nonzero" />
    <path d="M81.3197 49.272L82.827 49.272L82.827 42.1567L85.5708 42.1567L85.5708 40.8382L78.5759 40.8382L78.5759 42.1567L81.3197 42.1567L81.3197 49.272z" stroke="none" fill="#4DD0E1" fill-rule="nonzero" />
    <path d="M86.3089 44.9957C 86.3089 47.4783 88.0989 49.4145 90.6307 49.4145C 93.1626 49.4145 94.9525 47.4783 94.9525 44.9957C 94.9525 42.5844 93.1626 40.6957 90.6307 40.6957C 88.0989 40.6957 86.3089 42.5844 86.3089 44.9957zM87.8751 44.9957C 87.8751 43.3565 89.0292 42.0973 90.6307 42.0973C 92.2323 42.0973 93.3863 43.3565 93.3863 44.9957C 93.3863 46.7062 92.2323 48.0129 90.6307 48.0129C 89.0292 48.0129 87.8751 46.7062 87.8751 44.9957z" stroke="none" fill="#4DD0E1" fill-rule="nonzero" />
    <path d="M96.8398 49.272L98.3589 49.272L98.3589 46.1242L99.8191 46.1242L101.468 49.272L103.175 49.272L101.456 46.1361C 101.291 45.8272 101.185 45.6966 101.185 45.6966L101.185 45.6966L101.185 45.6728C 102.068 45.3164 102.586 44.3662 102.586 43.3684C 102.586 42.228 102.033 41.4203 101.173 41.0639C 100.82 40.9095 100.42 40.8382 99.5954 40.8382L99.5954 40.8382L96.8398 40.8382L96.8398 49.272zM98.3589 44.7938L98.3589 42.1567L99.4658 42.1567C 99.9251 42.1567 100.172 42.2043 100.384 42.2993C 100.844 42.4893 101.044 42.917 101.044 43.4515C 101.044 44.283 100.537 44.7938 99.7249 44.7938L99.7249 44.7938L98.3589 44.7938z" stroke="none" fill="#4DD0E1" fill-rule="nonzero" />
    <path d="M104.726 49.272L109.919 49.272L109.919 47.9535L106.245 47.9535L106.245 45.6847L109.059 45.6847L109.059 44.3662L106.245 44.3662L106.245 42.1567L109.73 42.1567L109.73 40.8382L104.726 40.8382L104.726 49.272z" stroke="none" fill="#4DD0E1" fill-rule="nonzero" />
    <path d="M21.3931 40.7956L23.2148 40.7956L23.2148 49.268L21.3931 49.268L21.3931 40.7956z" stroke="none" fill="#0A2044" fill-rule="nonzero" />
    <path d="M30.7272 49.2843L28.6475 46.3734L26.5518 49.268L24.4399 49.268L27.5996 44.9099L24.6011 40.7956L26.6969 40.7956L28.6314 43.4788L30.566 40.7956L32.6779 40.7956L29.6793 44.9261L32.823 49.268L30.7272 49.268L30.7272 49.2843z" stroke="none" fill="#0A2044" fill-rule="nonzero" />
    <path d="M15.9119 40.6819C 14.864 40.6819 13.9128 41.1535 13.268 41.8853C 12.6231 41.1535 11.6881 40.6819 10.6402 40.6819C 8.70565 40.6819 7.12577 42.2756 7.12577 44.227L7.12577 44.227L7.12577 49.2844L8.88299 49.2844L8.88299 44.227C 8.88299 43.2513 9.67293 42.4544 10.6402 42.4544C 11.6075 42.4544 12.3974 43.2513 12.3974 44.227L12.3974 44.227L12.3974 49.2844L14.1547 49.2844L14.1547 44.227C 14.1547 43.2513 14.9446 42.4544 15.9119 42.4544C 16.8792 42.4544 17.6691 43.2513 17.6691 44.227L17.6691 44.227L17.6691 49.2844L19.4263 49.2844L19.4263 44.227C 19.4263 42.2756 17.8464 40.6819 15.9119 40.6819z" stroke="none" fill="#0A2044" fill-rule="nonzero" />
    <path d="M1.37031 52L0 52L0 50.2925L1.37031 50.2763C 2.77286 50.2763 3.28875 49.5933 3.28875 48.1785L3.28875 48.1785L3.28875 40.7956L5.1427 40.7956L5.1427 48.1947C 5.1427 50.6503 3.80463 52 1.37031 52z" stroke="none" fill="#0A2044" fill-rule="nonzero" />
    <path d="M36.6938 49.3539L36.6938 40.7563L39.7543 40.7563C 40.5268 40.7563 41.1941 40.9556 41.6701 41.34C 42.1482 41.7261 42.4263 42.2937 42.4263 43.012C 42.4263 43.7683 42.0866 44.4338 41.5014 44.8123C 42.3633 45.1421 42.7678 45.9901 42.7678 46.825C 42.7678 47.6933 42.4208 48.3296 41.8713 48.7465C 41.3248 49.1611 40.5846 49.3539 39.8014 49.3539L39.8014 49.3539L36.6938 49.3539zM41.4118 44.8668C 41.3906 44.8595 41.3691 44.8525 41.3474 44.8458C 41.3424 44.8443 41.3373 44.8428 41.3323 44.8413L41.3323 44.8413L41.3323 44.8175C 41.335 44.816 41.3378 44.8145 41.3406 44.813C 41.3615 44.8015 41.3822 44.7897 41.4027 44.7774C 41.9959 44.4222 42.345 43.7666 42.345 43.012C 42.345 41.6222 41.2734 40.8382 39.7543 40.8382L39.7543 40.8382L36.775 40.8382L36.775 49.272L39.8014 49.272C 41.344 49.272 42.6865 48.5118 42.6865 46.825C 42.6865 45.9948 42.276 45.1646 41.4118 44.8668zM64.5716 49.3539L64.5716 40.7563L66.2531 40.7563L66.2531 44.1892L67.2084 44.1892L69.175 40.7563L71.0133 40.7563L68.5907 44.8655L71.1523 49.3539L69.2448 49.3539L67.2076 45.6716L66.2531 45.6716L66.2531 49.3539L64.5716 49.3539zM67.2552 45.5896L69.2925 49.272L71.0118 49.272L68.5035 44.8769L68.5035 44.8532L70.8705 40.8382L69.2218 40.8382L67.2552 44.2711L66.1718 44.2711L66.1718 40.8382L64.6528 40.8382L64.6528 49.272L66.1718 49.272L66.1718 45.5896L67.2552 45.5896zM71.8086 48.2709L72.7265 46.988L72.7938 47.0494C 73.2793 47.4924 74.0614 47.9191 74.8118 47.9191C 75.1755 47.9191 75.4623 47.8245 75.6564 47.6695C 75.8488 47.5158 75.9553 47.299 75.9553 47.0388C 75.9553 46.6794 75.74 46.4211 75.3838 46.1918C 75.1138 46.0179 74.7771 45.8693 74.4166 45.7103C 74.2978 45.6579 74.1765 45.6044 74.0541 45.5485C 73.5659 45.3253 73.0672 45.0658 72.6908 44.6918C 72.3113 44.3148 72.0575 43.8228 72.0575 43.1427C 72.0575 42.3756 72.3747 41.7408 72.9023 41.2993C 73.4288 40.8589 74.1606 40.6138 74.9885 40.6138C 75.8765 40.6138 76.8157 40.9161 77.4926 41.5379L77.4926 41.5379L77.5396 41.5811L76.789 42.976L76.7124 42.9067C 76.266 42.5025 75.5664 42.1912 74.9296 42.1912C 74.5592 42.1912 74.2599 42.2832 74.0553 42.4376C 73.8528 42.5905 73.739 42.8071 73.739 43.0714C 73.739 43.4206 73.9527 43.6677 74.3091 43.8868C 74.5712 44.0479 74.8958 44.1851 75.2443 44.3324C 75.3733 44.387 75.5057 44.4429 75.6393 44.502C 76.1278 44.7178 76.6269 44.9729 77.0037 45.3484C 77.3835 45.7269 77.6369 46.2256 77.6369 46.9201C 77.6369 47.6235 77.3819 48.2692 76.8934 48.7389C 76.4048 49.2086 75.6887 49.4965 74.7765 49.4965C 73.7213 49.4965 72.6282 49.0976 71.8575 48.3203L71.8575 48.3203L71.8086 48.2709zM81.2385 49.3539L81.2385 42.2387L78.4947 42.2387L78.4947 40.7563L85.6521 40.7563L85.6521 42.2387L82.9083 42.2387L82.9083 49.3539L81.2385 49.3539zM82.827 49.272L81.3197 49.272L81.3197 42.1567L78.5759 42.1567L78.5759 40.8382L85.5708 40.8382L85.5708 42.1567L82.827 42.1567L82.827 49.272zM96.7586 49.3539L96.7586 40.7563L99.5954 40.7563C 100.423 40.7563 100.837 40.8276 101.205 40.9885C 102.097 41.3588 102.668 42.1982 102.668 43.3684C 102.668 44.3605 102.168 45.3174 101.298 45.7133C 101.307 45.7255 101.316 45.7394 101.326 45.7551C 101.375 45.8285 101.444 45.9405 101.527 46.097L101.527 46.097L103.313 49.3539L101.419 49.3539L99.7702 46.2061L98.4401 46.2061L98.4401 49.3539L96.7586 49.3539zM99.8191 46.1242L101.468 49.272L103.175 49.272L101.456 46.1361C 101.349 45.9349 101.266 45.8093 101.222 45.7462C 101.215 45.7371 101.21 45.7292 101.205 45.7227C 101.192 45.705 101.185 45.6966 101.185 45.6966L101.185 45.6966L101.185 45.6728C 101.205 45.6648 101.225 45.6565 101.244 45.6479C 101.246 45.6472 101.247 45.6465 101.249 45.6458C 102.093 45.2702 102.586 44.3419 102.586 43.3684C 102.586 42.228 102.033 41.4203 101.173 41.0639C 100.82 40.9095 100.42 40.8382 99.5954 40.8382L99.5954 40.8382L96.8398 40.8382L96.8398 49.272L98.3589 49.272L98.3589 46.1242L99.8191 46.1242zM100.384 42.2993C 100.172 42.2043 99.9251 42.1567 99.4658 42.1567L99.4658 42.1567L98.3589 42.1567L98.3589 44.7938L99.7249 44.7938C 100.537 44.7938 101.044 44.283 101.044 43.4515C 101.044 42.917 100.844 42.4893 100.384 42.2993zM98.4401 44.7119L99.7249 44.7119C 100.114 44.7119 100.422 44.5899 100.631 44.3767C 100.842 44.1635 100.963 43.8504 100.963 43.4515C 100.963 42.9378 100.772 42.5484 100.354 42.3751L100.354 42.3751L100.351 42.3742C 100.154 42.2857 99.9198 42.2387 99.4659 42.2387L99.4659 42.2387L98.4401 42.2387L98.4401 44.7119zM104.644 49.3539L104.644 40.7563L109.812 40.7563L109.812 42.2387L106.326 42.2387L106.326 44.2842L109.14 44.2842L109.14 45.7666L106.326 45.7666L106.326 47.8716L110 47.8716L110 49.3539L104.644 49.3539zM109.919 47.9535L109.919 49.272L104.726 49.272L104.726 40.8382L109.73 40.8382L109.73 42.1567L106.245 42.1567L106.245 44.3662L109.059 44.3662L109.059 45.6847L106.245 45.6847L106.245 47.9535L109.919 47.9535zM38.3753 42.2387L38.3753 44.2011L39.7661 44.2011C 40.0753 44.2011 40.3118 44.0903 40.4717 43.9144C 40.6323 43.7375 40.7212 43.4881 40.7212 43.2021C 40.7212 42.9156 40.6351 42.6764 40.4747 42.5092C 40.3147 42.3426 40.0725 42.2387 39.7425 42.2387L39.7425 42.2387L38.3753 42.2387zM38.3753 45.6003L38.3753 47.8716L39.9192 47.8716C 40.2895 47.8716 40.5702 47.7504 40.7585 47.5523C 40.9473 47.3537 41.0509 47.0696 41.0509 46.73C 41.0509 46.3972 40.9449 46.116 40.7545 45.9185C 40.5644 45.7213 40.2834 45.6003 39.9192 45.6003L39.9192 45.6003L38.3753 45.6003zM48.4075 49.4965C 45.8285 49.4965 44.0045 47.5212 44.0045 44.9957C 44.0045 42.5394 45.8305 40.6138 48.4075 40.6138C 50.9844 40.6138 52.8104 42.5394 52.8104 44.9957C 52.8104 47.5212 50.9864 49.4965 48.4075 49.4965zM48.4075 42.1793C 46.8548 42.1793 45.7331 43.3976 45.7331 44.9957C 45.7331 46.6683 46.8576 47.931 48.4075 47.931C 49.9573 47.931 51.0818 46.6683 51.0818 44.9957C 51.0818 43.3976 49.9601 42.1793 48.4075 42.1793zM58.4437 49.4965C 55.8647 49.4965 54.0407 47.5212 54.0407 44.9957C 54.0407 42.5394 55.8667 40.6138 58.4437 40.6138C 61.0207 40.6138 62.8467 42.5394 62.8467 44.9957C 62.8467 47.5212 61.0227 49.4965 58.4437 49.4965zM58.4437 42.1793C 56.891 42.1793 55.7693 43.3976 55.7693 44.9957C 55.7693 46.6683 56.8939 47.931 58.4437 47.931C 59.9935 47.931 61.1181 46.6683 61.1181 44.9957C 61.1181 43.3976 59.9964 42.1793 58.4437 42.1793zM76.7038 42.7908C 76.2436 42.402 75.5597 42.1092 74.9296 42.1092C 74.1641 42.1092 73.6578 42.4893 73.6578 43.0714C 73.6578 43.7506 74.3892 44.0598 75.2184 44.4103C 76.3034 44.869 77.5556 45.3984 77.5556 46.92C 77.5556 48.2861 76.5664 49.4145 74.7765 49.4145C 73.7402 49.4145 72.6686 49.0226 71.9149 48.2623L71.9149 48.2623L72.7393 47.1101C 72.7592 47.1283 72.7796 47.1464 72.8005 47.1645C 73.2983 47.5962 74.0659 48.001 74.8118 48.001C 75.5655 48.001 76.0365 47.609 76.0365 47.0388C 76.0365 46.3353 75.2864 46.0045 74.4442 45.633C 73.3668 45.1578 72.1387 44.6162 72.1387 43.1427C 72.1387 41.6578 73.3634 40.6957 74.9885 40.6957C 75.8599 40.6957 76.7784 40.9926 77.4379 41.5984L77.4379 41.5984L76.7666 42.8457C 76.7462 42.8272 76.7252 42.8089 76.7038 42.7908zM90.6308 49.4965C 88.0518 49.4965 86.2278 47.5212 86.2278 44.9957C 86.2278 42.5394 88.0538 40.6138 90.6308 40.6138C 93.2077 40.6138 95.0337 42.5394 95.0337 44.9957C 95.0337 47.5212 93.2098 49.4965 90.6308 49.4965zM90.6308 42.1793C 89.0781 42.1793 87.9564 43.3976 87.9564 44.9957C 87.9564 46.6683 89.081 47.931 90.6308 47.931C 92.1806 47.931 93.3051 46.6683 93.3051 44.9957C 93.3051 43.3976 92.1835 42.1793 90.6308 42.1793zM44.0856 44.9957C 44.0856 47.4783 45.8756 49.4145 48.4074 49.4145C 50.9393 49.4145 52.7292 47.4783 52.7292 44.9957C 52.7292 42.5844 50.9393 40.6957 48.4074 40.6957C 45.8756 40.6957 44.0856 42.5844 44.0856 44.9957zM45.6519 44.9957C 45.6519 43.3565 46.8059 42.0973 48.4074 42.0973C 50.009 42.0973 51.163 43.3565 51.163 44.9957C 51.163 46.7062 50.009 48.0129 48.4074 48.0129C 46.8059 48.0129 45.6519 46.7062 45.6519 44.9957zM38.2941 42.1567L39.7425 42.1567C 40.4373 42.1567 40.8024 42.5962 40.8024 43.2021C 40.8024 43.8079 40.4255 44.283 39.7661 44.283L39.7661 44.283L38.2941 44.283L38.2941 42.1567zM38.2941 45.5184L39.9192 45.5184C 40.6846 45.5184 41.1321 46.0292 41.1321 46.73C 41.1321 47.4427 40.6964 47.9535 39.9192 47.9535L39.9192 47.9535L38.2941 47.9535L38.2941 45.5184zM58.4437 49.4145C 55.9118 49.4145 54.1219 47.4783 54.1219 44.9957C 54.1219 42.5844 55.9118 40.6957 58.4437 40.6957C 60.9755 40.6957 62.7655 42.5844 62.7655 44.9957C 62.7655 47.4783 60.9755 49.4145 58.4437 49.4145zM58.4437 42.0973C 56.8422 42.0973 55.6881 43.3565 55.6881 44.9957C 55.6881 46.7062 56.8422 48.0129 58.4437 48.0129C 60.0452 48.0129 61.1993 46.7062 61.1993 44.9957C 61.1993 43.3565 60.0452 42.0973 58.4437 42.0973zM90.6307 49.4145C 88.0989 49.4145 86.3089 47.4783 86.3089 44.9957C 86.3089 42.5844 88.0989 40.6957 90.6307 40.6957C 93.1626 40.6957 94.9525 42.5844 94.9525 44.9957C 94.9525 47.4783 93.1626 49.4145 90.6307 49.4145zM90.6307 42.0973C 89.0292 42.0973 87.8751 43.3565 87.8751 44.9957C 87.8751 46.7062 89.0292 48.0129 90.6307 48.0129C 92.2323 48.0129 93.3863 46.7062 93.3863 44.9957C 93.3863 43.3565 92.2323 42.0973 90.6307 42.0973z" stroke="none" fill="#4DD0E1" fill-rule="nonzero" />
</g>
</svg>